<?xml version="1.0" encoding="UTF-8" standalone="no"?>
<!DOCTYPE svg PUBLIC "-//W3C//DTD SVG 1.1//EN"
 "http://www.w3.org/Graphics/SVG/1.1/DTD/svg11.dtd">
<!-- Generated by graphviz version 2.40.1 (20161225.0304)
 -->
<!-- Title: G Pages: 1 -->
<svg width="660pt" height="1258pt"
 viewBox="0.00 0.00 659.67 1258.00" xmlns="http://www.w3.org/2000/svg" xmlns:xlink="http://www.w3.org/1999/xlink">
<g id="graph0" class="graph" transform="scale(1 1) rotate(0) translate(4 1254)">
<title>G</title>
<polygon fill="#ffffff" stroke="transparent" points="-4,4 -4,-1254 655.6678,-1254 655.6678,4 -4,4"/>
<g id="clust1" class="cluster">
<title>cluster_Global</title>
<path fill="none" stroke="#c0c0c0" d="M142.3339,-152C142.3339,-152 631.6678,-152 631.6678,-152 637.6678,-152 643.6678,-158 643.6678,-164 643.6678,-164 643.6678,-1230 643.6678,-1230 643.6678,-1236 637.6678,-1242 631.6678,-1242 631.6678,-1242 142.3339,-1242 142.3339,-1242 136.3339,-1242 130.3339,-1236 130.3339,-1230 130.3339,-1230 130.3339,-164 130.3339,-164 130.3339,-158 136.3339,-152 142.3339,-152"/>
<text text-anchor="middle" x="387.0009" y="-1229.2" font-family="Times,serif" font-size="11.00" fill="#c0c0c0">Global</text>
</g>
<g id="clust2" class="cluster">
<title>cluster_\Anax</title>
<path fill="none" stroke="#c0c0c0" d="M430.6678,-160C430.6678,-160 623.6678,-160 623.6678,-160 629.6678,-160 635.6678,-166 635.6678,-172 635.6678,-172 635.6678,-712 635.6678,-712 635.6678,-718 629.6678,-724 623.6678,-724 623.6678,-724 430.6678,-724 430.6678,-724 424.6678,-724 418.6678,-718 418.6678,-712 418.6678,-712 418.6678,-172 418.6678,-172 418.6678,-166 424.6678,-160 430.6678,-160"/>
<text text-anchor="middle" x="527.1678" y="-711.2" font-family="Times,serif" font-size="11.00" fill="#c0c0c0">Anax</text>
</g>
<g id="clust3" class="cluster">
<title>cluster_\Anax\Controller</title>
<path fill="none" stroke="#c0c0c0" d="M438.6678,-408C438.6678,-408 615.6678,-408 615.6678,-408 621.6678,-408 627.6678,-414 627.6678,-420 627.6678,-420 627.6678,-684 627.6678,-684 627.6678,-690 621.6678,-696 615.6678,-696 615.6678,-696 438.6678,-696 438.6678,-696 432.6678,-696 426.6678,-690 426.6678,-684 426.6678,-684 426.6678,-420 426.6678,-420 426.6678,-414 432.6678,-408 438.6678,-408"/>
<text text-anchor="middle" x="527.1678" y="-683.2" font-family="Times,serif" font-size="11.00" fill="#c0c0c0">Controller</text>
</g>
<g id="clust4" class="cluster">
<title>cluster_\Anax\Navigation</title>
<path fill="none" stroke="#c0c0c0" d="M502.6678,-328C502.6678,-328 551.6678,-328 551.6678,-328 557.6678,-328 563.6678,-334 563.6678,-340 563.6678,-340 563.6678,-388 563.6678,-388 563.6678,-394 557.6678,-400 551.6678,-400 551.6678,-400 502.6678,-400 502.6678,-400 496.6678,-400 490.6678,-394 490.6678,-388 490.6678,-388 490.6678,-340 490.6678,-340 490.6678,-334 496.6678,-328 502.6678,-328"/>
<text text-anchor="middle" x="527.1678" y="-387.2" font-family="Times,serif" font-size="11.00" fill="#c0c0c0">Navigation</text>
</g>
<g id="clust5" class="cluster">
<title>cluster_\Anax\Page</title>
<path fill="none" stroke="#c0c0c0" d="M504.1678,-248C504.1678,-248 550.1678,-248 550.1678,-248 556.1678,-248 562.1678,-254 562.1678,-260 562.1678,-260 562.1678,-308 562.1678,-308 562.1678,-314 556.1678,-320 550.1678,-320 550.1678,-320 504.1678,-320 504.1678,-320 498.1678,-320 492.1678,-314 492.1678,-308 492.1678,-308 492.1678,-260 492.1678,-260 492.1678,-254 498.1678,-248 504.1678,-248"/>
<text text-anchor="middle" x="527.1678" y="-307.2" font-family="Times,serif" font-size="11.00" fill="#c0c0c0">Page</text>
</g>
<g id="clust6" class="cluster">
<title>cluster_\Anax\StyleChooser</title>
<path fill="none" stroke="#c0c0c0" d="M448.6678,-168C448.6678,-168 605.6678,-168 605.6678,-168 611.6678,-168 617.6678,-174 617.6678,-180 617.6678,-180 617.6678,-228 617.6678,-228 617.6678,-234 611.6678,-240 605.6678,-240 605.6678,-240 448.6678,-240 448.6678,-240 442.6678,-240 436.6678,-234 436.6678,-228 436.6678,-228 436.6678,-180 436.6678,-180 436.6678,-174 442.6678,-168 448.6678,-168"/>
<text text-anchor="middle" x="527.1678" y="-227.2" font-family="Times,serif" font-size="11.00" fill="#c0c0c0">StyleChooser</text>
</g>
<g id="clust7" class="cluster">
<title>cluster_\Anna</title>
<path fill="none" stroke="#c0c0c0" d="M150.3339,-732C150.3339,-732 623.6678,-732 623.6678,-732 629.6678,-732 635.6678,-738 635.6678,-744 635.6678,-744 635.6678,-1202 635.6678,-1202 635.6678,-1208 629.6678,-1214 623.6678,-1214 623.6678,-1214 150.3339,-1214 150.3339,-1214 144.3339,-1214 138.3339,-1208 138.3339,-1202 138.3339,-1202 138.3339,-744 138.3339,-744 138.3339,-738 144.3339,-732 150.3339,-732"/>
<text text-anchor="middle" x="387.0009" y="-1201.2" font-family="Times,serif" font-size="11.00" fill="#c0c0c0">Anna</text>
</g>
<g id="clust8" class="cluster">
<title>cluster_\Anna\IpValidatorJson</title>
<path fill="none" stroke="#c0c0c0" d="M438.6678,-1034C438.6678,-1034 615.6678,-1034 615.6678,-1034 621.6678,-1034 627.6678,-1040 627.6678,-1046 627.6678,-1046 627.6678,-1094 627.6678,-1094 627.6678,-1100 621.6678,-1106 615.6678,-1106 615.6678,-1106 438.6678,-1106 438.6678,-1106 432.6678,-1106 426.6678,-1100 426.6678,-1094 426.6678,-1094 426.6678,-1046 426.6678,-1046 426.6678,-1040 432.6678,-1034 438.6678,-1034"/>
<text text-anchor="middle" x="527.1678" y="-1093.2" font-family="Times,serif" font-size="11.00" fill="#c0c0c0">IpValidatorJson</text>
</g>
<g id="clust9" class="cluster">
<title>cluster_\Anna\IpValidator</title>
<path fill="none" stroke="#c0c0c0" d="M452.1678,-900C452.1678,-900 602.1678,-900 602.1678,-900 608.1678,-900 614.1678,-906 614.1678,-912 614.1678,-912 614.1678,-1014 614.1678,-1014 614.1678,-1020 608.1678,-1026 602.1678,-1026 602.1678,-1026 452.1678,-1026 452.1678,-1026 446.1678,-1026 440.1678,-1020 440.1678,-1014 440.1678,-1014 440.1678,-912 440.1678,-912 440.1678,-906 446.1678,-900 452.1678,-900"/>
<text text-anchor="middle" x="527.1678" y="-1013.2" font-family="Times,serif" font-size="11.00" fill="#c0c0c0">IpValidator</text>
</g>
<g id="clust10" class="cluster">
<title>cluster_\Anna\Form3</title>
<path fill="none" stroke="#c0c0c0" d="M158.3339,-1114C158.3339,-1114 561.6678,-1114 561.6678,-1114 567.6678,-1114 573.6678,-1120 573.6678,-1126 573.6678,-1126 573.6678,-1174 573.6678,-1174 573.6678,-1180 567.6678,-1186 561.6678,-1186 561.6678,-1186 158.3339,-1186 158.3339,-1186 152.3339,-1186 146.3339,-1180 146.3339,-1174 146.3339,-1174 146.3339,-1126 146.3339,-1126 146.3339,-1120 152.3339,-1114 158.3339,-1114"/>
<text text-anchor="middle" x="360.0009" y="-1173.2" font-family="Times,serif" font-size="11.00" fill="#c0c0c0">Form3</text>
</g>
<g id="clust11" class="cluster">
<title>cluster_\Anna\Request</title>
<path fill="none" stroke="#c0c0c0" d="M499.1678,-820C499.1678,-820 555.1678,-820 555.1678,-820 561.1678,-820 567.1678,-826 567.1678,-832 567.1678,-832 567.1678,-880 567.1678,-880 567.1678,-886 561.1678,-892 555.1678,-892 555.1678,-892 499.1678,-892 499.1678,-892 493.1678,-892 487.1678,-886 487.1678,-880 487.1678,-880 487.1678,-832 487.1678,-832 487.1678,-826 493.1678,-820 499.1678,-820"/>
<text text-anchor="middle" x="527.1678" y="-879.2" font-family="Times,serif" font-size="11.00" fill="#c0c0c0">Request</text>
</g>
<g id="clust12" class="cluster">
<title>cluster_\Anna\Session</title>
<path fill="none" stroke="#c0c0c0" d="M495.6678,-740C495.6678,-740 558.6678,-740 558.6678,-740 564.6678,-740 570.6678,-746 570.6678,-752 570.6678,-752 570.6678,-800 570.6678,-800 570.6678,-806 564.6678,-812 558.6678,-812 558.6678,-812 495.6678,-812 495.6678,-812 489.6678,-812 483.6678,-806 483.6678,-800 483.6678,-800 483.6678,-752 483.6678,-752 483.6678,-746 489.6678,-740 495.6678,-740"/>
<text text-anchor="middle" x="527.1678" y="-799.2" font-family="Times,serif" font-size="11.00" fill="#c0c0c0">Session</text>
</g>
<!-- \\Anax\\Controller\\DevelopmentController -->
<g id="node1" class="node">
<title>\\Anax\\Controller\\DevelopmentController</title>
<polygon fill="none" stroke="#000000" points="606.1678,-506 448.1678,-506 448.1678,-470 606.1678,-470 606.1678,-506"/>
<text text-anchor="middle" x="527.1678" y="-485.2" font-family="Courier,monospace" font-size="11.00" fill="#000000">DevelopmentController</text>
</g>
<!-- \\Anax\\Commons\\ContainerInjectableInterface -->
<g id="node16" class="node">
<title>\\Anax\\Commons\\ContainerInjectableInterface</title>
<ellipse fill="none" stroke="#000000" cx="181.3339" cy="-18" rx="181.168" ry="18"/>
<text text-anchor="middle" x="181.3339" y="-14.3" font-family="Times,serif" font-size="14.00" fill="#c0c0c0">\Anax\Commons\ContainerInjectableInterface</text>
</g>
<!-- \\Anax\\Controller\\DevelopmentController&#45;&gt;\\Anax\\Commons\\ContainerInjectableInterface -->
<g id="edge1" class="edge">
<title>\\Anax\\Controller\\DevelopmentController&#45;&gt;\\Anax\\Commons\\ContainerInjectableInterface</title>
<path fill="none" stroke="#000000" stroke-dasharray="1,5" d="M447.9634,-480.2222C436.8626,-475.9708 426.5673,-469.8207 418.6678,-461 294.2093,-322.0272 493.6566,-177.8356 362.6678,-45 357.9747,-40.2407 352.8313,-36.0806 347.3432,-32.4533"/>
<polygon fill="none" stroke="#000000" points="348.8373,-29.2703 338.4502,-27.1824 345.2681,-35.292 348.8373,-29.2703"/>
</g>
<!-- \\Anax\\Controller\\FlatFileContentController -->
<g id="node2" class="node">
<title>\\Anax\\Controller\\FlatFileContentController</title>
<polygon fill="none" stroke="#000000" points="619.6678,-452 434.6678,-452 434.6678,-416 619.6678,-416 619.6678,-452"/>
<text text-anchor="middle" x="527.1678" y="-431.2" font-family="Courier,monospace" font-size="11.00" fill="#000000">FlatFileContentController</text>
</g>
<!-- \\Anax\\Controller\\FlatFileContentController&#45;&gt;\\Anax\\Commons\\ContainerInjectableInterface -->
<g id="edge5" class="edge">
<title>\\Anax\\Controller\\FlatFileContentController&#45;&gt;\\Anax\\Commons\\ContainerInjectableInterface</title>
<path fill="none" stroke="#000000" stroke-dasharray="1,5" d="M434.372,-416.9465C428.5531,-413.378 423.2186,-409.1068 418.6678,-404 311.2325,-283.4385 477.2501,-158.7908 362.6678,-45 357.7364,-40.1026 352.3269,-35.8442 346.5568,-32.1515"/>
<polygon fill="none" stroke="#000000" points="348.2703,-29.0994 337.8586,-27.1374 344.7743,-35.1639 348.2703,-29.0994"/>
</g>
<!-- \\Anax\\Controller\\ErrorHandlerController -->
<g id="node3" class="node">
<title>\\Anax\\Controller\\ErrorHandlerController</title>
<polygon fill="none" stroke="#000000" points="609.6678,-668 444.6678,-668 444.6678,-632 609.6678,-632 609.6678,-668"/>
<text text-anchor="middle" x="527.1678" y="-647.2" font-family="Courier,monospace" font-size="11.00" fill="#000000">ErrorHandlerController</text>
</g>
<!-- \\Anax\\Controller\\ErrorHandlerController&#45;&gt;\\Anax\\Commons\\ContainerInjectableInterface -->
<g id="edge8" class="edge">
<title>\\Anax\\Controller\\ErrorHandlerController&#45;&gt;\\Anax\\Commons\\ContainerInjectableInterface</title>
<path fill="none" stroke="#000000" stroke-dasharray="1,5" d="M444.4366,-641.1544C434.6261,-636.9411 425.641,-631.0843 418.6678,-623 334.3809,-525.2833 451.5502,-138.5562 362.6678,-45 358.136,-40.2299 353.1537,-36.0541 347.8232,-32.4078"/>
<polygon fill="none" stroke="#000000" points="349.5293,-29.3483 339.1749,-27.1043 345.8699,-35.3157 349.5293,-29.3483"/>
</g>
<!-- \\Anax\\Controller\\SampleController -->
<g id="node4" class="node">
<title>\\Anax\\Controller\\SampleController</title>
<polygon fill="none" stroke="#000000" points="589.6678,-614 464.6678,-614 464.6678,-578 589.6678,-578 589.6678,-614"/>
<text text-anchor="middle" x="527.1678" y="-593.2" font-family="Courier,monospace" font-size="11.00" fill="#000000">SampleController</text>
</g>
<!-- \\Anax\\Controller\\SampleController&#45;&gt;\\Anax\\Commons\\ContainerInjectableInterface -->
<g id="edge9" class="edge">
<title>\\Anax\\Controller\\SampleController&#45;&gt;\\Anax\\Commons\\ContainerInjectableInterface</title>
<path fill="none" stroke="#000000" stroke-dasharray="1,5" d="M464.5114,-593.408C447.3352,-589.5802 430.2713,-582.3186 418.6678,-569 264.8147,-392.4047 524.8241,-214.0031 362.6678,-45 358.0402,-40.177 352.9516,-35.9636 347.5088,-32.2922"/>
<polygon fill="none" stroke="#000000" points="349.0489,-29.1336 338.6795,-26.9593 345.4298,-35.1254 349.0489,-29.1336"/>
</g>
<!-- \\Anax\\Controller\\SampleJsonController -->
<g id="node5" class="node">
<title>\\Anax\\Controller\\SampleJsonController</title>
<polygon fill="none" stroke="#000000" points="603.1678,-560 451.1678,-560 451.1678,-524 603.1678,-524 603.1678,-560"/>
<text text-anchor="middle" x="527.1678" y="-539.2" font-family="Courier,monospace" font-size="11.00" fill="#000000">SampleJsonController</text>
</g>
<!-- \\Anax\\Controller\\SampleJsonController&#45;&gt;\\Anax\\Commons\\ContainerInjectableInterface -->
<g id="edge10" class="edge">
<title>\\Anax\\Controller\\SampleJsonController&#45;&gt;\\Anax\\Commons\\ContainerInjectableInterface</title>
<path fill="none" stroke="#000000" stroke-dasharray="1,5" d="M451.14,-535.5298C438.8018,-531.2519 427.2703,-524.7541 418.6678,-515 279.5217,-357.2268 509.2302,-195.9089 362.6678,-45 358.0111,-40.2051 352.8981,-36.0153 347.4351,-32.3633"/>
<polygon fill="none" stroke="#000000" points="348.9548,-29.1938 338.5775,-27.0578 345.3578,-35.199 348.9548,-29.1938"/>
</g>
<!-- \\Anax\\Navigation\\Navbar -->
<g id="node6" class="node">
<title>\\Anax\\Navigation\\Navbar</title>
<polygon fill="none" stroke="#000000" points="555.6678,-372 498.6678,-372 498.6678,-336 555.6678,-336 555.6678,-372"/>
<text text-anchor="middle" x="527.1678" y="-351.2" font-family="Courier,monospace" font-size="11.00" fill="#000000">Navbar</text>
</g>
<!-- \\Anax\\Page\\Page -->
<g id="node7" class="node">
<title>\\Anax\\Page\\Page</title>
<polygon fill="none" stroke="#000000" points="554.1678,-292 500.1678,-292 500.1678,-256 554.1678,-256 554.1678,-292"/>
<text text-anchor="middle" x="527.1678" y="-271.2" font-family="Courier,monospace" font-size="11.00" fill="#000000">Page</text>
</g>
<!-- \\Anax\\Page\\Page&#45;&gt;\\Anax\\Commons\\ContainerInjectableInterface -->
<g id="edge3" class="edge">
<title>\\Anax\\Page\\Page&#45;&gt;\\Anax\\Commons\\ContainerInjectableInterface</title>
<path fill="none" stroke="#000000" stroke-dasharray="1,5" d="M499.8535,-273.6553C475.3833,-271.861 440.1366,-265.3712 418.6678,-244 353.5513,-179.1794 431.6133,-105.7322 362.6678,-45 357.085,-40.0822 351.0098,-35.8374 344.5788,-32.1837"/>
<polygon fill="none" stroke="#000000" points="346.0942,-29.0273 335.6015,-27.5599 342.889,-35.2504 346.0942,-29.0273"/>
</g>
<!-- \\Anax\\StyleChooser\\StyleChooserController -->
<g id="node8" class="node">
<title>\\Anax\\StyleChooser\\StyleChooserController</title>
<polygon fill="none" stroke="#000000" points="609.6678,-212 444.6678,-212 444.6678,-176 609.6678,-176 609.6678,-212"/>
<text text-anchor="middle" x="527.1678" y="-191.2" font-family="Courier,monospace" font-size="11.00" fill="#000000">StyleChooserController</text>
</g>
<!-- \\Anax\\StyleChooser\\StyleChooserController&#45;&gt;\\Anax\\Commons\\ContainerInjectableInterface -->
<g id="edge6" class="edge">
<title>\\Anax\\StyleChooser\\StyleChooserController&#45;&gt;\\Anax\\Commons\\ContainerInjectableInterface</title>
<path fill="none" stroke="#000000" stroke-dasharray="1,5" d="M513.4033,-175.8942C487.7133,-143.5721 429.0214,-76.3924 362.6678,-45 352.1034,-40.0019 340.839,-35.8821 329.2927,-32.4915"/>
<polygon fill="none" stroke="#000000" points="330.1067,-29.0855 319.5367,-29.8116 328.2525,-35.8355 330.1067,-29.0855"/>
</g>
<!-- \\Anna\\IpValidatorJson\\IpValidatorJsonController -->
<g id="node9" class="node">
<title>\\Anna\\IpValidatorJson\\IpValidatorJsonController</title>
<polygon fill="none" stroke="#000000" points="619.6678,-1078 434.6678,-1078 434.6678,-1042 619.6678,-1042 619.6678,-1078"/>
<text text-anchor="middle" x="527.1678" y="-1057.2" font-family="Courier,monospace" font-size="11.00" fill="#000000">IpValidatorJsonController</text>
</g>
<!-- \\Anna\\IpValidatorJson\\IpValidatorJsonController&#45;&gt;\\Anax\\Commons\\ContainerInjectableInterface -->
<g id="edge2" class="edge">
<title>\\Anna\\IpValidatorJson\\IpValidatorJsonController&#45;&gt;\\Anax\\Commons\\ContainerInjectableInterface</title>
<path fill="none" stroke="#000000" stroke-dasharray="1,5" d="M434.2898,-1043.7445C428.407,-1040.0044 423.0859,-1035.4756 418.6678,-1030 280.9948,-859.3736 510.4823,-206.92 362.6678,-45 358.4062,-40.3317 353.7145,-36.2252 348.6851,-32.6214"/>
<polygon fill="none" stroke="#000000" points="350.2299,-29.4551 339.9185,-27.0207 346.4612,-35.354 350.2299,-29.4551"/>
</g>
<!-- \\Anna\\IpValidator\\IpValidator -->
<g id="node10" class="node">
<title>\\Anna\\IpValidator\\IpValidator</title>
<polygon fill="none" stroke="#000000" points="572.6678,-998 481.6678,-998 481.6678,-962 572.6678,-962 572.6678,-998"/>
<text text-anchor="middle" x="527.1678" y="-977.2" font-family="Courier,monospace" font-size="11.00" fill="#000000">IpValidator</text>
</g>
<!-- \\Anna\\IpValidator\\IpValidator&#45;&gt;\\Anax\\Commons\\ContainerInjectableInterface -->
<g id="edge4" class="edge">
<title>\\Anna\\IpValidator\\IpValidator&#45;&gt;\\Anax\\Commons\\ContainerInjectableInterface</title>
<path fill="none" stroke="#000000" stroke-dasharray="1,5" d="M481.5603,-980.5114C459.1715,-978.1854 433.8196,-971.2002 418.6678,-953 289.3234,-797.6322 499.3243,-193.977 362.6678,-45 358.2202,-40.1514 353.3084,-35.9097 348.0365,-32.2087"/>
<polygon fill="none" stroke="#000000" points="349.8004,-29.1834 339.4706,-26.8282 346.077,-35.1111 349.8004,-29.1834"/>
</g>
<!-- \\Anna\\IpValidator\\IpValidatorController -->
<g id="node11" class="node">
<title>\\Anna\\IpValidator\\IpValidatorController</title>
<polygon fill="none" stroke="#000000" points="606.1678,-944 448.1678,-944 448.1678,-908 606.1678,-908 606.1678,-944"/>
<text text-anchor="middle" x="527.1678" y="-923.2" font-family="Courier,monospace" font-size="11.00" fill="#000000">IpValidatorController</text>
</g>
<!-- \\Anna\\IpValidator\\IpValidatorController&#45;&gt;\\Anax\\Commons\\ContainerInjectableInterface -->
<g id="edge7" class="edge">
<title>\\Anna\\IpValidator\\IpValidatorController&#45;&gt;\\Anax\\Commons\\ContainerInjectableInterface</title>
<path fill="none" stroke="#000000" stroke-dasharray="1,5" d="M448.1304,-916.7258C436.7941,-912.107 426.3804,-905.4719 418.6678,-896 299.0023,-749.0373 491.0663,-184.3977 362.6678,-45 358.2102,-40.1605 353.2901,-35.9266 348.0113,-32.2319"/>
<polygon fill="none" stroke="#000000" points="349.7683,-29.2026 339.4356,-26.8604 346.0525,-35.1349 349.7683,-29.2026"/>
</g>
<!-- \\Anna\\Form3\\Form3 -->
<g id="node12" class="node">
<title>\\Anna\\Form3\\Form3</title>
<polygon fill="none" stroke="#000000" points="208.3339,-1158 154.3339,-1158 154.3339,-1122 208.3339,-1122 208.3339,-1158"/>
<text text-anchor="middle" x="181.3339" y="-1137.2" font-family="Courier,monospace" font-size="11.00" fill="#000000">Form3</text>
</g>
<!-- \\Anna\\Form3\\Form3Unit -->
<g id="node13" class="node">
<title>\\Anna\\Form3\\Form3Unit</title>
<polygon fill="none" stroke="#000000" points="565.6678,-1158 488.6678,-1158 488.6678,-1122 565.6678,-1122 565.6678,-1158"/>
<text text-anchor="middle" x="527.1678" y="-1137.2" font-family="Courier,monospace" font-size="11.00" fill="#000000">Form3Unit</text>
</g>
<!-- \\Anna\\Form3\\Form3Unit&#45;&gt;\\Anna\\Form3\\Form3 -->
<g id="edge11" class="edge">
<title>\\Anna\\Form3\\Form3Unit&#45;&gt;\\Anna\\Form3\\Form3</title>
<path fill="none" stroke="#000000" d="M488.5029,-1140C421.5507,-1140 284.8711,-1140 218.7775,-1140"/>
<polygon fill="none" stroke="#000000" points="218.4197,-1136.5001 208.4197,-1140 218.4196,-1143.5001 218.4197,-1136.5001"/>
</g>
<!-- \\Anna\\Request\\Request -->
<g id="node14" class="node">
<title>\\Anna\\Request\\Request</title>
<polygon fill="none" stroke="#000000" points="559.1678,-864 495.1678,-864 495.1678,-828 559.1678,-828 559.1678,-864"/>
<text text-anchor="middle" x="527.1678" y="-843.2" font-family="Courier,monospace" font-size="11.00" fill="#000000">Request</text>
</g>
<!-- \\Anna\\Session\\Session2 -->
<g id="node15" class="node">
<title>\\Anna\\Session\\Session2</title>
<polygon fill="none" stroke="#000000" points="562.6678,-784 491.6678,-784 491.6678,-748 562.6678,-748 562.6678,-784"/>
<text text-anchor="middle" x="527.1678" y="-763.2" font-family="Courier,monospace" font-size="11.00" fill="#000000">Session2</text>
</g>
<!-- \\Anax\\Session\\Session -->
<g id="node17" class="node">
<title>\\Anax\\Session\\Session</title>
<ellipse fill="none" stroke="#000000" cx="181.3339" cy="-126" rx="94.7833" ry="18"/>
<text text-anchor="middle" x="181.3339" y="-122.3" font-family="Times,serif" font-size="14.00" fill="#c0c0c0">\Anax\Session\Session</text>
</g>
<!-- \\Anna\\Session\\Session2&#45;&gt;\\Anax\\Session\\Session -->
<g id="edge12" class="edge">
<title>\\Anna\\Session\\Session2&#45;&gt;\\Anax\\Session\\Session</title>
<path fill="none" stroke="#000000" d="M491.6219,-751.4686C468.2244,-740.3576 438.3871,-723.0265 418.6678,-700 269.0353,-525.2722 203.977,-243.1587 186.4458,-153.964"/>
<polygon fill="none" stroke="#000000" points="189.8673,-153.2218 184.541,-144.0632 182.9933,-154.5444 189.8673,-153.2218"/>
</g>
<!-- \\Anax\\Session\\SessionInterface -->
<g id="node18" class="node">
<title>\\Anax\\Session\\SessionInterface</title>
<ellipse fill="none" stroke="#000000" cx="181.3339" cy="-72" rx="126.978" ry="18"/>
<text text-anchor="middle" x="181.3339" y="-68.3" font-family="Times,serif" font-size="14.00" fill="#c0c0c0">\Anax\Session\SessionInterface</text>
</g>
<!-- \\Anna\\Session\\Session2&#45;&gt;\\Anax\\Session\\SessionInterface -->
<g id="edge13" class="edge">
<title>\\Anna\\Session\\Session2&#45;&gt;\\Anax\\Session\\SessionInterface</title>
<path fill="none" stroke="#000000" stroke-dasharray="1,5" d="M491.6544,-754.1869C466.8295,-743.9522 435.2613,-726.5493 418.6678,-700 347.5763,-586.2549 454.8759,-196.4147 362.6678,-99 349.9295,-85.5424 333.6067,-76.8094 315.9886,-71.3481"/>
<polygon fill="none" stroke="#000000" points="316.6509,-67.9009 306.082,-68.6414 314.8059,-74.6534 316.6509,-67.9009"/>
</g>
</g>
</svg>
