<?xml version="1.0" encoding="UTF-8" standalone="no"?>
<!DOCTYPE svg PUBLIC "-//W3C//DTD SVG 1.1//EN"
 "http://www.w3.org/Graphics/SVG/1.1/DTD/svg11.dtd">
<!-- Generated by graphviz version 2.40.1 (20161225.0304)
 -->
<!-- Title: G Pages: 1 -->
<svg width="985pt" height="1272pt"
 viewBox="0.00 0.00 985.15 1272.32" xmlns="http://www.w3.org/2000/svg" xmlns:xlink="http://www.w3.org/1999/xlink">
<g id="graph0" class="graph" transform="scale(1 1) rotate(0) translate(4 1268.3244)">
<title>G</title>
<polygon fill="#ffffff" stroke="transparent" points="-4,4 -4,-1268.3244 981.1453,-1268.3244 981.1453,4 -4,4"/>
<g id="clust1" class="cluster">
<title>cluster_Global</title>
<path fill="none" stroke="#c0c0c0" d="M93.3339,-140.3244C93.3339,-140.3244 957.1453,-140.3244 957.1453,-140.3244 963.1453,-140.3244 969.1453,-146.3244 969.1453,-152.3244 969.1453,-152.3244 969.1453,-1244.3244 969.1453,-1244.3244 969.1453,-1250.3244 963.1453,-1256.3244 957.1453,-1256.3244 957.1453,-1256.3244 93.3339,-1256.3244 93.3339,-1256.3244 87.3339,-1256.3244 81.3339,-1250.3244 81.3339,-1244.3244 81.3339,-1244.3244 81.3339,-152.3244 81.3339,-152.3244 81.3339,-146.3244 87.3339,-140.3244 93.3339,-140.3244"/>
<text text-anchor="middle" x="525.2396" y="-1243.5244" font-family="Times,serif" font-size="11.00" fill="#c0c0c0">Global</text>
</g>
<g id="clust2" class="cluster">
<title>cluster_\Anna</title>
<path fill="none" stroke="#c0c0c0" d="M101.3339,-720.3244C101.3339,-720.3244 932.6453,-720.3244 932.6453,-720.3244 938.6453,-720.3244 944.6453,-726.3244 944.6453,-732.3244 944.6453,-732.3244 944.6453,-1216.3244 944.6453,-1216.3244 944.6453,-1222.3244 938.6453,-1228.3244 932.6453,-1228.3244 932.6453,-1228.3244 101.3339,-1228.3244 101.3339,-1228.3244 95.3339,-1228.3244 89.3339,-1222.3244 89.3339,-1216.3244 89.3339,-1216.3244 89.3339,-732.3244 89.3339,-732.3244 89.3339,-726.3244 95.3339,-720.3244 101.3339,-720.3244"/>
<text text-anchor="middle" x="516.9896" y="-1215.5244" font-family="Times,serif" font-size="11.00" fill="#c0c0c0">Anna</text>
</g>
<g id="clust3" class="cluster">
<title>cluster_\Anna\Commons</title>
<path fill="none" stroke="#c0c0c0" d="M109.3339,-780.3244C109.3339,-780.3244 253.3339,-780.3244 253.3339,-780.3244 259.3339,-780.3244 265.3339,-786.3244 265.3339,-792.3244 265.3339,-792.3244 265.3339,-1056.3244 265.3339,-1056.3244 265.3339,-1062.3244 259.3339,-1068.3244 253.3339,-1068.3244 253.3339,-1068.3244 109.3339,-1068.3244 109.3339,-1068.3244 103.3339,-1068.3244 97.3339,-1062.3244 97.3339,-1056.3244 97.3339,-1056.3244 97.3339,-792.3244 97.3339,-792.3244 97.3339,-786.3244 103.3339,-780.3244 109.3339,-780.3244"/>
<text text-anchor="middle" x="181.3339" y="-1055.5244" font-family="Times,serif" font-size="11.00" fill="#c0c0c0">Commons</text>
</g>
<g id="clust4" class="cluster">
<title>cluster_\Anna\Curl</title>
<path fill="none" stroke="#c0c0c0" d="M538.4066,-1128.3244C538.4066,-1128.3244 584.4066,-1128.3244 584.4066,-1128.3244 590.4066,-1128.3244 596.4066,-1134.3244 596.4066,-1140.3244 596.4066,-1140.3244 596.4066,-1188.3244 596.4066,-1188.3244 596.4066,-1194.3244 590.4066,-1200.3244 584.4066,-1200.3244 584.4066,-1200.3244 538.4066,-1200.3244 538.4066,-1200.3244 532.4066,-1200.3244 526.4066,-1194.3244 526.4066,-1188.3244 526.4066,-1188.3244 526.4066,-1140.3244 526.4066,-1140.3244 526.4066,-1134.3244 532.4066,-1128.3244 538.4066,-1128.3244"/>
<text text-anchor="middle" x="561.4066" y="-1187.5244" font-family="Times,serif" font-size="11.00" fill="#c0c0c0">Curl</text>
</g>
<g id="clust5" class="cluster">
<title>cluster_\Anna\Form4</title>
<path fill="none" stroke="#c0c0c0" d="M538.4066,-1048.3244C538.4066,-1048.3244 887.1453,-1048.3244 887.1453,-1048.3244 893.1453,-1048.3244 899.1453,-1054.3244 899.1453,-1060.3244 899.1453,-1060.3244 899.1453,-1108.3244 899.1453,-1108.3244 899.1453,-1114.3244 893.1453,-1120.3244 887.1453,-1120.3244 887.1453,-1120.3244 538.4066,-1120.3244 538.4066,-1120.3244 532.4066,-1120.3244 526.4066,-1114.3244 526.4066,-1108.3244 526.4066,-1108.3244 526.4066,-1060.3244 526.4066,-1060.3244 526.4066,-1054.3244 532.4066,-1048.3244 538.4066,-1048.3244"/>
<text text-anchor="middle" x="712.776" y="-1107.5244" font-family="Times,serif" font-size="11.00" fill="#c0c0c0">Form4</text>
</g>
<g id="clust6" class="cluster">
<title>cluster_\Anna\GeoLocator</title>
<path fill="none" stroke="#c0c0c0" d="M523.4066,-968.3244C523.4066,-968.3244 924.6453,-968.3244 924.6453,-968.3244 930.6453,-968.3244 936.6453,-974.3244 936.6453,-980.3244 936.6453,-980.3244 936.6453,-1028.3244 936.6453,-1028.3244 936.6453,-1034.3244 930.6453,-1040.3244 924.6453,-1040.3244 924.6453,-1040.3244 523.4066,-1040.3244 523.4066,-1040.3244 517.4066,-1040.3244 511.4066,-1034.3244 511.4066,-1028.3244 511.4066,-1028.3244 511.4066,-980.3244 511.4066,-980.3244 511.4066,-974.3244 517.4066,-968.3244 523.4066,-968.3244"/>
<text text-anchor="middle" x="724.026" y="-1027.5244" font-family="Times,serif" font-size="11.00" fill="#c0c0c0">GeoLocator</text>
</g>
<g id="clust7" class="cluster">
<title>cluster_\Anna\GeoLocatorJson</title>
<path fill="none" stroke="#c0c0c0" d="M475.9066,-888.3244C475.9066,-888.3244 646.9066,-888.3244 646.9066,-888.3244 652.9066,-888.3244 658.9066,-894.3244 658.9066,-900.3244 658.9066,-900.3244 658.9066,-948.3244 658.9066,-948.3244 658.9066,-954.3244 652.9066,-960.3244 646.9066,-960.3244 646.9066,-960.3244 475.9066,-960.3244 475.9066,-960.3244 469.9066,-960.3244 463.9066,-954.3244 463.9066,-948.3244 463.9066,-948.3244 463.9066,-900.3244 463.9066,-900.3244 463.9066,-894.3244 469.9066,-888.3244 475.9066,-888.3244"/>
<text text-anchor="middle" x="561.4066" y="-947.5244" font-family="Times,serif" font-size="11.00" fill="#c0c0c0">GeoLocatorJson</text>
</g>
<g id="clust8" class="cluster">
<title>cluster_\Anna\IpValidator</title>
<path fill="none" stroke="#c0c0c0" d="M486.4066,-808.3244C486.4066,-808.3244 636.4066,-808.3244 636.4066,-808.3244 642.4066,-808.3244 648.4066,-814.3244 648.4066,-820.3244 648.4066,-820.3244 648.4066,-868.3244 648.4066,-868.3244 648.4066,-874.3244 642.4066,-880.3244 636.4066,-880.3244 636.4066,-880.3244 486.4066,-880.3244 486.4066,-880.3244 480.4066,-880.3244 474.4066,-874.3244 474.4066,-868.3244 474.4066,-868.3244 474.4066,-820.3244 474.4066,-820.3244 474.4066,-814.3244 480.4066,-808.3244 486.4066,-808.3244"/>
<text text-anchor="middle" x="561.4066" y="-867.5244" font-family="Times,serif" font-size="11.00" fill="#c0c0c0">IpValidator</text>
</g>
<g id="clust9" class="cluster">
<title>cluster_\Anna\IpValidatorJson</title>
<path fill="none" stroke="#c0c0c0" d="M472.9066,-728.3244C472.9066,-728.3244 649.9066,-728.3244 649.9066,-728.3244 655.9066,-728.3244 661.9066,-734.3244 661.9066,-740.3244 661.9066,-740.3244 661.9066,-788.3244 661.9066,-788.3244 661.9066,-794.3244 655.9066,-800.3244 649.9066,-800.3244 649.9066,-800.3244 472.9066,-800.3244 472.9066,-800.3244 466.9066,-800.3244 460.9066,-794.3244 460.9066,-788.3244 460.9066,-788.3244 460.9066,-740.3244 460.9066,-740.3244 460.9066,-734.3244 466.9066,-728.3244 472.9066,-728.3244"/>
<text text-anchor="middle" x="561.4066" y="-787.5244" font-family="Times,serif" font-size="11.00" fill="#c0c0c0">IpValidatorJson</text>
</g>
<g id="clust10" class="cluster">
<title>cluster_\Anna\Request</title>
<path fill="none" stroke="#c0c0c0" d="M824.6453,-888.3244C824.6453,-888.3244 880.6453,-888.3244 880.6453,-888.3244 886.6453,-888.3244 892.6453,-894.3244 892.6453,-900.3244 892.6453,-900.3244 892.6453,-948.3244 892.6453,-948.3244 892.6453,-954.3244 886.6453,-960.3244 880.6453,-960.3244 880.6453,-960.3244 824.6453,-960.3244 824.6453,-960.3244 818.6453,-960.3244 812.6453,-954.3244 812.6453,-948.3244 812.6453,-948.3244 812.6453,-900.3244 812.6453,-900.3244 812.6453,-894.3244 818.6453,-888.3244 824.6453,-888.3244"/>
<text text-anchor="middle" x="852.6453" y="-947.5244" font-family="Times,serif" font-size="11.00" fill="#c0c0c0">Request</text>
</g>
<g id="clust11" class="cluster">
<title>cluster_\Anna\Result</title>
<path fill="none" stroke="#c0c0c0" d="M824.6453,-808.3244C824.6453,-808.3244 880.6453,-808.3244 880.6453,-808.3244 886.6453,-808.3244 892.6453,-814.3244 892.6453,-820.3244 892.6453,-820.3244 892.6453,-868.3244 892.6453,-868.3244 892.6453,-874.3244 886.6453,-880.3244 880.6453,-880.3244 880.6453,-880.3244 824.6453,-880.3244 824.6453,-880.3244 818.6453,-880.3244 812.6453,-874.3244 812.6453,-868.3244 812.6453,-868.3244 812.6453,-820.3244 812.6453,-820.3244 812.6453,-814.3244 818.6453,-808.3244 824.6453,-808.3244"/>
<text text-anchor="middle" x="852.6453" y="-867.5244" font-family="Times,serif" font-size="11.00" fill="#c0c0c0">Result</text>
</g>
<g id="clust12" class="cluster">
<title>cluster_\Anna\Session</title>
<path fill="none" stroke="#c0c0c0" d="M821.1453,-728.3244C821.1453,-728.3244 884.1453,-728.3244 884.1453,-728.3244 890.1453,-728.3244 896.1453,-734.3244 896.1453,-740.3244 896.1453,-740.3244 896.1453,-788.3244 896.1453,-788.3244 896.1453,-794.3244 890.1453,-800.3244 884.1453,-800.3244 884.1453,-800.3244 821.1453,-800.3244 821.1453,-800.3244 815.1453,-800.3244 809.1453,-794.3244 809.1453,-788.3244 809.1453,-788.3244 809.1453,-740.3244 809.1453,-740.3244 809.1453,-734.3244 815.1453,-728.3244 821.1453,-728.3244"/>
<text text-anchor="middle" x="852.6453" y="-787.5244" font-family="Times,serif" font-size="11.00" fill="#c0c0c0">Session</text>
</g>
<g id="clust13" class="cluster">
<title>cluster_\Anax</title>
<path fill="none" stroke="#c0c0c0" d="M756.1453,-148.3244C756.1453,-148.3244 949.1453,-148.3244 949.1453,-148.3244 955.1453,-148.3244 961.1453,-154.3244 961.1453,-160.3244 961.1453,-160.3244 961.1453,-700.3244 961.1453,-700.3244 961.1453,-706.3244 955.1453,-712.3244 949.1453,-712.3244 949.1453,-712.3244 756.1453,-712.3244 756.1453,-712.3244 750.1453,-712.3244 744.1453,-706.3244 744.1453,-700.3244 744.1453,-700.3244 744.1453,-160.3244 744.1453,-160.3244 744.1453,-154.3244 750.1453,-148.3244 756.1453,-148.3244"/>
<text text-anchor="middle" x="852.6453" y="-699.5244" font-family="Times,serif" font-size="11.00" fill="#c0c0c0">Anax</text>
</g>
<g id="clust14" class="cluster">
<title>cluster_\Anax\Controller</title>
<path fill="none" stroke="#c0c0c0" d="M764.1453,-396.3244C764.1453,-396.3244 941.1453,-396.3244 941.1453,-396.3244 947.1453,-396.3244 953.1453,-402.3244 953.1453,-408.3244 953.1453,-408.3244 953.1453,-672.3244 953.1453,-672.3244 953.1453,-678.3244 947.1453,-684.3244 941.1453,-684.3244 941.1453,-684.3244 764.1453,-684.3244 764.1453,-684.3244 758.1453,-684.3244 752.1453,-678.3244 752.1453,-672.3244 752.1453,-672.3244 752.1453,-408.3244 752.1453,-408.3244 752.1453,-402.3244 758.1453,-396.3244 764.1453,-396.3244"/>
<text text-anchor="middle" x="852.6453" y="-671.5244" font-family="Times,serif" font-size="11.00" fill="#c0c0c0">Controller</text>
</g>
<g id="clust15" class="cluster">
<title>cluster_\Anax\Navigation</title>
<path fill="none" stroke="#c0c0c0" d="M828.1453,-316.3244C828.1453,-316.3244 877.1453,-316.3244 877.1453,-316.3244 883.1453,-316.3244 889.1453,-322.3244 889.1453,-328.3244 889.1453,-328.3244 889.1453,-376.3244 889.1453,-376.3244 889.1453,-382.3244 883.1453,-388.3244 877.1453,-388.3244 877.1453,-388.3244 828.1453,-388.3244 828.1453,-388.3244 822.1453,-388.3244 816.1453,-382.3244 816.1453,-376.3244 816.1453,-376.3244 816.1453,-328.3244 816.1453,-328.3244 816.1453,-322.3244 822.1453,-316.3244 828.1453,-316.3244"/>
<text text-anchor="middle" x="852.6453" y="-375.5244" font-family="Times,serif" font-size="11.00" fill="#c0c0c0">Navigation</text>
</g>
<g id="clust16" class="cluster">
<title>cluster_\Anax\Page</title>
<path fill="none" stroke="#c0c0c0" d="M829.6453,-236.3244C829.6453,-236.3244 875.6453,-236.3244 875.6453,-236.3244 881.6453,-236.3244 887.6453,-242.3244 887.6453,-248.3244 887.6453,-248.3244 887.6453,-296.3244 887.6453,-296.3244 887.6453,-302.3244 881.6453,-308.3244 875.6453,-308.3244 875.6453,-308.3244 829.6453,-308.3244 829.6453,-308.3244 823.6453,-308.3244 817.6453,-302.3244 817.6453,-296.3244 817.6453,-296.3244 817.6453,-248.3244 817.6453,-248.3244 817.6453,-242.3244 823.6453,-236.3244 829.6453,-236.3244"/>
<text text-anchor="middle" x="852.6453" y="-295.5244" font-family="Times,serif" font-size="11.00" fill="#c0c0c0">Page</text>
</g>
<g id="clust17" class="cluster">
<title>cluster_\Anax\StyleChooser</title>
<path fill="none" stroke="#c0c0c0" d="M774.1453,-156.3244C774.1453,-156.3244 931.1453,-156.3244 931.1453,-156.3244 937.1453,-156.3244 943.1453,-162.3244 943.1453,-168.3244 943.1453,-168.3244 943.1453,-216.3244 943.1453,-216.3244 943.1453,-222.3244 937.1453,-228.3244 931.1453,-228.3244 931.1453,-228.3244 774.1453,-228.3244 774.1453,-228.3244 768.1453,-228.3244 762.1453,-222.3244 762.1453,-216.3244 762.1453,-216.3244 762.1453,-168.3244 762.1453,-168.3244 762.1453,-162.3244 768.1453,-156.3244 774.1453,-156.3244"/>
<text text-anchor="middle" x="852.6453" y="-215.5244" font-family="Times,serif" font-size="11.00" fill="#c0c0c0">StyleChooser</text>
</g>
<!-- \\Anna\\Commons\\CurlInterface -->
<g id="node1" class="node">
<title>\\Anna\\Commons\\CurlInterface</title>
<polygon fill="none" stroke="#000000" points="233.3339,-1040.3244 129.3339,-1040.3244 129.3339,-1004.3244 233.3339,-1004.3244 233.3339,-1040.3244"/>
<text text-anchor="middle" x="181.3339" y="-1019.5244" font-family="Courier,monospace" font-size="11.00" fill="#000000">CurlInterface</text>
</g>
<!-- \\Anna\\Commons\\GeoLocatorInterface -->
<g id="node2" class="node">
<title>\\Anna\\Commons\\GeoLocatorInterface</title>
<polygon fill="none" stroke="#000000" points="253.8339,-986.3244 108.8339,-986.3244 108.8339,-950.3244 253.8339,-950.3244 253.8339,-986.3244"/>
<text text-anchor="middle" x="181.3339" y="-965.5244" font-family="Courier,monospace" font-size="11.00" fill="#000000">GeoLocatorInterface</text>
</g>
<!-- \\Anna\\Commons\\IpValidatorInterface -->
<g id="node3" class="node">
<title>\\Anna\\Commons\\IpValidatorInterface</title>
<polygon fill="none" stroke="#000000" points="257.3339,-932.3244 105.3339,-932.3244 105.3339,-896.3244 257.3339,-896.3244 257.3339,-932.3244"/>
<text text-anchor="middle" x="181.3339" y="-911.5244" font-family="Courier,monospace" font-size="11.00" fill="#000000">IpValidatorInterface</text>
</g>
<!-- \\Anna\\Commons\\ResultInterface -->
<g id="node4" class="node">
<title>\\Anna\\Commons\\ResultInterface</title>
<polygon fill="none" stroke="#000000" points="240.3339,-878.3244 122.3339,-878.3244 122.3339,-842.3244 240.3339,-842.3244 240.3339,-878.3244"/>
<text text-anchor="middle" x="181.3339" y="-857.5244" font-family="Courier,monospace" font-size="11.00" fill="#000000">ResultInterface</text>
</g>
<!-- \\Anna\\Commons\\IpValidatorTrait -->
<g id="node5" class="node">
<title>\\Anna\\Commons\\IpValidatorTrait</title>
<polygon fill="none" stroke="#000000" points="243.8339,-824.3244 118.8339,-824.3244 118.8339,-788.3244 243.8339,-788.3244 243.8339,-824.3244"/>
<text text-anchor="middle" x="181.3339" y="-803.5244" font-family="Courier,monospace" font-size="11.00" fill="#000000">IpValidatorTrait</text>
</g>
<!-- \\Anna\\Curl\\Curl2 -->
<g id="node6" class="node">
<title>\\Anna\\Curl\\Curl2</title>
<polygon fill="none" stroke="#000000" points="588.4066,-1172.3244 534.4066,-1172.3244 534.4066,-1136.3244 588.4066,-1136.3244 588.4066,-1172.3244"/>
<text text-anchor="middle" x="561.4066" y="-1151.5244" font-family="Courier,monospace" font-size="11.00" fill="#000000">Curl2</text>
</g>
<!-- \\Anna\\Curl\\Curl2&#45;&gt;\\Anna\\Commons\\CurlInterface -->
<g id="edge6" class="edge">
<title>\\Anna\\Curl\\Curl2&#45;&gt;\\Anna\\Commons\\CurlInterface</title>
<path fill="none" stroke="#000000" stroke-dasharray="1,5" d="M534.3839,-1149.1571C508.5041,-1143.9209 468.5013,-1135.0727 434.6678,-1124.3244 362.076,-1101.2631 280.8308,-1066.9785 230.3783,-1044.6377"/>
<polygon fill="none" stroke="#000000" points="231.5771,-1041.3403 221.0178,-1040.4732 228.7316,-1047.7359 231.5771,-1041.3403"/>
</g>
<!-- \\Anna\\Form4\\Form4 -->
<g id="node7" class="node">
<title>\\Anna\\Form4\\Form4</title>
<polygon fill="none" stroke="#000000" points="588.4066,-1092.3244 534.4066,-1092.3244 534.4066,-1056.3244 588.4066,-1056.3244 588.4066,-1092.3244"/>
<text text-anchor="middle" x="561.4066" y="-1071.5244" font-family="Courier,monospace" font-size="11.00" fill="#000000">Form4</text>
</g>
<!-- \\Anna\\Form4\\Form4Unit -->
<g id="node8" class="node">
<title>\\Anna\\Form4\\Form4Unit</title>
<polygon fill="none" stroke="#000000" points="891.1453,-1092.3244 814.1453,-1092.3244 814.1453,-1056.3244 891.1453,-1056.3244 891.1453,-1092.3244"/>
<text text-anchor="middle" x="852.6453" y="-1071.5244" font-family="Courier,monospace" font-size="11.00" fill="#000000">Form4Unit</text>
</g>
<!-- \\Anna\\Form4\\Form4Unit&#45;&gt;\\Anna\\Form4\\Form4 -->
<g id="edge7" class="edge">
<title>\\Anna\\Form4\\Form4Unit&#45;&gt;\\Anna\\Form4\\Form4</title>
<path fill="none" stroke="#000000" d="M813.9711,-1074.3244C757.7155,-1074.3244 654.0018,-1074.3244 598.5955,-1074.3244"/>
<polygon fill="none" stroke="#000000" points="598.5105,-1070.8245 588.5104,-1074.3244 598.5104,-1077.8245 598.5105,-1070.8245"/>
</g>
<!-- \\Anna\\GeoLocator\\GeoLocator -->
<g id="node9" class="node">
<title>\\Anna\\GeoLocator\\GeoLocator</title>
<polygon fill="none" stroke="#000000" points="603.4066,-1012.3244 519.4066,-1012.3244 519.4066,-976.3244 603.4066,-976.3244 603.4066,-1012.3244"/>
<text text-anchor="middle" x="561.4066" y="-991.5244" font-family="Courier,monospace" font-size="11.00" fill="#000000">GeoLocator</text>
</g>
<!-- \\Anna\\GeoLocator\\GeoLocator&#45;&gt;\\Anna\\Commons\\GeoLocatorInterface -->
<g id="edge9" class="edge">
<title>\\Anna\\GeoLocator\\GeoLocator&#45;&gt;\\Anna\\Commons\\GeoLocatorInterface</title>
<path fill="none" stroke="#000000" stroke-dasharray="1,5" d="M519.28,-991.4426C457.9625,-987.248 342.8788,-979.3753 264.2034,-973.9933"/>
<polygon fill="none" stroke="#000000" points="264.0502,-970.4747 253.8346,-973.284 263.5724,-977.4584 264.0502,-970.4747"/>
</g>
<!-- \\Anax\\Commons\\ContainerInjectableInterface -->
<g id="node25" class="node">
<title>\\Anax\\Commons\\ContainerInjectableInterface</title>
<ellipse fill="none" stroke="#000000" cx="181.3339" cy="-114.3244" rx="181.168" ry="18"/>
<text text-anchor="middle" x="181.3339" y="-110.6244" font-family="Times,serif" font-size="14.00" fill="#c0c0c0">\Anax\Commons\ContainerInjectableInterface</text>
</g>
<!-- \\Anna\\GeoLocator\\GeoLocator&#45;&gt;\\Anax\\Commons\\ContainerInjectableInterface -->
<g id="edge8" class="edge">
<title>\\Anna\\GeoLocator\\GeoLocator&#45;&gt;\\Anax\\Commons\\ContainerInjectableInterface</title>
<path fill="none" stroke="#000000" stroke-dasharray="1,5" d="M519.3094,-994.691C491.9033,-992.6894 457.1899,-985.5931 434.6678,-964.3244 402.8232,-934.2519 227.4264,-286.0374 188.8423,-142.3603"/>
<polygon fill="none" stroke="#000000" points="192.1791,-141.2905 186.207,-132.5393 185.4183,-143.1047 192.1791,-141.2905"/>
</g>
<!-- \\Anna\\GeoLocator\\GeoLocatorController -->
<g id="node10" class="node">
<title>\\Anna\\GeoLocator\\GeoLocatorController</title>
<polygon fill="none" stroke="#000000" points="928.6453,-1012.3244 776.6453,-1012.3244 776.6453,-976.3244 928.6453,-976.3244 928.6453,-1012.3244"/>
<text text-anchor="middle" x="852.6453" y="-991.5244" font-family="Courier,monospace" font-size="11.00" fill="#000000">GeoLocatorController</text>
</g>
<!-- \\Anna\\GeoLocator\\GeoLocatorController&#45;&gt;\\Anna\\GeoLocator\\GeoLocator -->
<g id="edge10" class="edge">
<title>\\Anna\\GeoLocator\\GeoLocatorController&#45;&gt;\\Anna\\GeoLocator\\GeoLocator</title>
<path fill="none" stroke="#000000" d="M776.5062,-994.3244C725.377,-994.3244 659.3211,-994.3244 613.9775,-994.3244"/>
<polygon fill="none" stroke="#000000" points="613.7753,-990.8245 603.7753,-994.3244 613.7752,-997.8245 613.7753,-990.8245"/>
</g>
<!-- \\Anna\\GeoLocator\\GeoLocatorController&#45;&gt;\\Anax\\Commons\\ContainerInjectableInterface -->
<g id="edge11" class="edge">
<title>\\Anna\\GeoLocator\\GeoLocatorController&#45;&gt;\\Anax\\Commons\\ContainerInjectableInterface</title>
<path fill="none" stroke="#000000" stroke-dasharray="1,5" d="M776.5485,-984.5498C764.4439,-980.03 753.0118,-973.5576 744.1453,-964.3244 668.2798,-885.3202 736.8943,-822.4099 688.1453,-724.3244 558.3039,-463.076 296.2053,-216.4063 209.7297,-139.1502"/>
<polygon fill="none" stroke="#000000" points="211.9527,-136.4434 202.1536,-132.4148 207.3017,-141.6749 211.9527,-136.4434"/>
</g>
<!-- \\Anna\\GeoLocatorJson\\GeoLocatorJsonController -->
<g id="node11" class="node">
<title>\\Anna\\GeoLocatorJson\\GeoLocatorJsonController</title>
<polygon fill="none" stroke="#000000" points="650.9066,-932.3244 471.9066,-932.3244 471.9066,-896.3244 650.9066,-896.3244 650.9066,-932.3244"/>
<text text-anchor="middle" x="561.4066" y="-911.5244" font-family="Courier,monospace" font-size="11.00" fill="#000000">GeoLocatorJsonController</text>
</g>
<!-- \\Anna\\GeoLocatorJson\\GeoLocatorJsonController&#45;&gt;\\Anna\\Commons\\IpValidatorInterface -->
<g id="edge13" class="edge">
<title>\\Anna\\GeoLocatorJson\\GeoLocatorJsonController&#45;&gt;\\Anna\\Commons\\IpValidatorInterface</title>
<path fill="none" stroke="#000000" stroke-dasharray="1,5" d="M471.8159,-914.3244C410.1994,-914.3244 328.8124,-914.3244 267.865,-914.3244"/>
<polygon fill="none" stroke="#000000" points="267.5004,-910.8245 257.5004,-914.3244 267.5003,-917.8245 267.5004,-910.8245"/>
</g>
<!-- \\Anna\\GeoLocatorJson\\GeoLocatorJsonController&#45;&gt;\\Anax\\Commons\\ContainerInjectableInterface -->
<g id="edge12" class="edge">
<title>\\Anna\\GeoLocatorJson\\GeoLocatorJsonController&#45;&gt;\\Anax\\Commons\\ContainerInjectableInterface</title>
<path fill="none" stroke="#000000" stroke-dasharray="1,5" d="M471.8098,-905.3071C458.1659,-900.6668 445.1615,-893.9579 434.6678,-884.3244 318.5729,-777.7457 211.7083,-268.2717 186.786,-142.4607"/>
<polygon fill="none" stroke="#000000" points="190.1825,-141.5933 184.8175,-132.4573 183.3143,-142.945 190.1825,-141.5933"/>
</g>
<!-- \\Anna\\IpValidator\\IpValidatorController -->
<g id="node12" class="node">
<title>\\Anna\\IpValidator\\IpValidatorController</title>
<polygon fill="none" stroke="#000000" points="640.4066,-852.3244 482.4066,-852.3244 482.4066,-816.3244 640.4066,-816.3244 640.4066,-852.3244"/>
<text text-anchor="middle" x="561.4066" y="-831.5244" font-family="Courier,monospace" font-size="11.00" fill="#000000">IpValidatorController</text>
</g>
<!-- \\Anna\\IpValidator\\IpValidatorController&#45;&gt;\\Anna\\Commons\\IpValidatorInterface -->
<g id="edge15" class="edge">
<title>\\Anna\\IpValidator\\IpValidatorController&#45;&gt;\\Anna\\Commons\\IpValidatorInterface</title>
<path fill="none" stroke="#000000" stroke-dasharray="1,5" d="M500.9436,-852.3508C461.7792,-863.554 409.5237,-877.6205 362.6678,-887.3244 331.8658,-893.7035 297.8212,-899.1812 267.6281,-903.5028"/>
<polygon fill="none" stroke="#000000" points="266.9602,-900.0622 257.5466,-904.9237 267.9372,-906.9937 266.9602,-900.0622"/>
</g>
<!-- \\Anna\\IpValidator\\IpValidatorController&#45;&gt;\\Anax\\Commons\\ContainerInjectableInterface -->
<g id="edge14" class="edge">
<title>\\Anna\\IpValidator\\IpValidatorController&#45;&gt;\\Anax\\Commons\\ContainerInjectableInterface</title>
<path fill="none" stroke="#000000" stroke-dasharray="1,5" d="M482.2602,-828.0459C464.9974,-823.4801 447.9456,-816.1039 434.6678,-804.3244 226.0738,-619.2675 189.0043,-247.398 182.6209,-142.4681"/>
<polygon fill="none" stroke="#000000" points="186.1081,-142.1387 182.0523,-132.351 179.1191,-142.5316 186.1081,-142.1387"/>
</g>
<!-- \\Anna\\IpValidatorJson\\IpValidatorJsonController -->
<g id="node13" class="node">
<title>\\Anna\\IpValidatorJson\\IpValidatorJsonController</title>
<polygon fill="none" stroke="#000000" points="653.9066,-772.3244 468.9066,-772.3244 468.9066,-736.3244 653.9066,-736.3244 653.9066,-772.3244"/>
<text text-anchor="middle" x="561.4066" y="-751.5244" font-family="Courier,monospace" font-size="11.00" fill="#000000">IpValidatorJsonController</text>
</g>
<!-- \\Anna\\IpValidatorJson\\IpValidatorJsonController&#45;&gt;\\Anna\\Commons\\IpValidatorInterface -->
<g id="edge17" class="edge">
<title>\\Anna\\IpValidatorJson\\IpValidatorJsonController&#45;&gt;\\Anna\\Commons\\IpValidatorInterface</title>
<path fill="none" stroke="#000000" stroke-dasharray="1,5" d="M498.4358,-772.4087C477.0649,-780.2514 453.7807,-790.7944 434.6678,-804.3244 394.8096,-832.5399 405.4764,-863.825 362.6678,-887.3244 333.9666,-903.0796 299.0523,-910.5327 267.5523,-913.8117"/>
<polygon fill="none" stroke="#000000" points="267.0969,-910.3386 257.4572,-914.7349 267.7345,-917.3095 267.0969,-910.3386"/>
</g>
<!-- \\Anna\\IpValidatorJson\\IpValidatorJsonController&#45;&gt;\\Anax\\Commons\\ContainerInjectableInterface -->
<g id="edge16" class="edge">
<title>\\Anna\\IpValidatorJson\\IpValidatorJsonController&#45;&gt;\\Anax\\Commons\\ContainerInjectableInterface</title>
<path fill="none" stroke="#000000" stroke-dasharray="1,5" d="M550.644,-736.2013C497.2932,-646.3647 261.211,-248.8285 197.3225,-141.2473"/>
<polygon fill="none" stroke="#000000" points="200.2993,-139.4054 192.1838,-132.5944 194.2806,-142.9797 200.2993,-139.4054"/>
</g>
<!-- \\Anna\\Request\\Request -->
<g id="node14" class="node">
<title>\\Anna\\Request\\Request</title>
<polygon fill="none" stroke="#000000" points="884.6453,-932.3244 820.6453,-932.3244 820.6453,-896.3244 884.6453,-896.3244 884.6453,-932.3244"/>
<text text-anchor="middle" x="852.6453" y="-911.5244" font-family="Courier,monospace" font-size="11.00" fill="#000000">Request</text>
</g>
<!-- \\Anna\\Result\\Result2 -->
<g id="node15" class="node">
<title>\\Anna\\Result\\Result2</title>
<polygon fill="none" stroke="#000000" points="884.6453,-852.3244 820.6453,-852.3244 820.6453,-816.3244 884.6453,-816.3244 884.6453,-852.3244"/>
<text text-anchor="middle" x="852.6453" y="-831.5244" font-family="Courier,monospace" font-size="11.00" fill="#000000">Result2</text>
</g>
<!-- \\Anna\\Session\\Session2 -->
<g id="node16" class="node">
<title>\\Anna\\Session\\Session2</title>
<polygon fill="none" stroke="#000000" points="888.1453,-772.3244 817.1453,-772.3244 817.1453,-736.3244 888.1453,-736.3244 888.1453,-772.3244"/>
<text text-anchor="middle" x="852.6453" y="-751.5244" font-family="Courier,monospace" font-size="11.00" fill="#000000">Session2</text>
</g>
<!-- \\Anax\\Session\\Session -->
<g id="node26" class="node">
<title>\\Anax\\Session\\Session</title>
<ellipse fill="none" stroke="#000000" cx="561.4066" cy="-114.3244" rx="94.7833" ry="18"/>
<text text-anchor="middle" x="561.4066" y="-110.6244" font-family="Times,serif" font-size="14.00" fill="#c0c0c0">\Anax\Session\Session</text>
</g>
<!-- \\Anna\\Session\\Session2&#45;&gt;\\Anax\\Session\\Session -->
<g id="edge19" class="edge">
<title>\\Anna\\Session\\Session2&#45;&gt;\\Anax\\Session\\Session</title>
<path fill="none" stroke="#000000" d="M816.974,-741.4793C792.7376,-730.9088 761.9582,-713.5334 744.1453,-688.3244 673.9244,-588.9466 724.0275,-536.5972 688.1453,-420.3244 655.4222,-314.2878 600.0101,-194.2233 574.7144,-141.5422"/>
<polygon fill="none" stroke="#000000" points="577.8528,-139.9926 570.3538,-132.5082 571.5488,-143.0355 577.8528,-139.9926"/>
</g>
<!-- \\Anax\\Session\\SessionInterface -->
<g id="node27" class="node">
<title>\\Anax\\Session\\SessionInterface</title>
<ellipse fill="none" stroke="#000000" cx="561.4066" cy="-60.3244" rx="126.978" ry="18"/>
<text text-anchor="middle" x="561.4066" y="-56.6244" font-family="Times,serif" font-size="14.00" fill="#c0c0c0">\Anax\Session\SessionInterface</text>
</g>
<!-- \\Anna\\Session\\Session2&#45;&gt;\\Anax\\Session\\SessionInterface -->
<g id="edge20" class="edge">
<title>\\Anna\\Session\\Session2&#45;&gt;\\Anax\\Session\\SessionInterface</title>
<path fill="none" stroke="#000000" stroke-dasharray="1,5" d="M817.1319,-742.5113C792.307,-732.2766 760.7388,-714.8736 744.1453,-688.3244 673.0538,-574.5793 777.2854,-187.5541 688.1453,-87.3244 684.1227,-82.8013 679.5456,-78.9307 674.575,-75.6254"/>
<polygon fill="none" stroke="#000000" points="676.2744,-72.565 665.8669,-70.5812 672.7657,-78.6222 676.2744,-72.565"/>
</g>
<!-- \\Anax\\Controller\\DevelopmentController -->
<g id="node17" class="node">
<title>\\Anax\\Controller\\DevelopmentController</title>
<polygon fill="none" stroke="#000000" points="931.6453,-656.3244 773.6453,-656.3244 773.6453,-620.3244 931.6453,-620.3244 931.6453,-656.3244"/>
<text text-anchor="middle" x="852.6453" y="-635.5244" font-family="Courier,monospace" font-size="11.00" fill="#000000">DevelopmentController</text>
</g>
<!-- \\Anax\\Controller\\DevelopmentController&#45;&gt;\\Anax\\Commons\\ContainerInjectableInterface -->
<g id="edge1" class="edge">
<title>\\Anax\\Controller\\DevelopmentController&#45;&gt;\\Anax\\Commons\\ContainerInjectableInterface</title>
<path fill="none" stroke="#000000" stroke-dasharray="1,5" d="M773.425,-630.9047C762.2554,-626.6187 751.9427,-620.3641 744.1453,-611.3244 659.8584,-513.6077 776.9811,-126.9248 688.1453,-33.3244 648.9353,7.9887 614.753,-34.2831 561.4066,-14.3244"/>
</g>
<!-- \\Anax\\Controller\\ErrorHandlerController -->
<g id="node18" class="node">
<title>\\Anax\\Controller\\ErrorHandlerController</title>
<polygon fill="none" stroke="#000000" points="935.1453,-602.3244 770.1453,-602.3244 770.1453,-566.3244 935.1453,-566.3244 935.1453,-602.3244"/>
<text text-anchor="middle" x="852.6453" y="-581.5244" font-family="Courier,monospace" font-size="11.00" fill="#000000">ErrorHandlerController</text>
</g>
<!-- \\Anax\\Controller\\ErrorHandlerController&#45;&gt;\\Anax\\Commons\\ContainerInjectableInterface -->
<g id="edge2" class="edge">
<title>\\Anax\\Controller\\ErrorHandlerController&#45;&gt;\\Anax\\Commons\\ContainerInjectableInterface</title>
<path fill="none" stroke="#000000" stroke-dasharray="1,5" d="M769.9878,-575.4149C760.1662,-571.2112 751.1584,-565.3741 744.1453,-557.3244 590.2922,-380.729 850.2174,-202.4081 688.1453,-33.3244 648.7317,7.7944 614.753,-34.2831 561.4066,-14.3244"/>
</g>
<!-- \\Anax\\Controller\\FlatFileContentController -->
<g id="node19" class="node">
<title>\\Anax\\Controller\\FlatFileContentController</title>
<polygon fill="none" stroke="#000000" points="945.1453,-548.3244 760.1453,-548.3244 760.1453,-512.3244 945.1453,-512.3244 945.1453,-548.3244"/>
<text text-anchor="middle" x="852.6453" y="-527.5244" font-family="Courier,monospace" font-size="11.00" fill="#000000">FlatFileContentController</text>
</g>
<!-- \\Anax\\Controller\\FlatFileContentController&#45;&gt;\\Anax\\Commons\\ContainerInjectableInterface -->
<g id="edge3" class="edge">
<title>\\Anax\\Controller\\FlatFileContentController&#45;&gt;\\Anax\\Commons\\ContainerInjectableInterface</title>
<path fill="none" stroke="#000000" stroke-dasharray="1,5" d="M759.7222,-516.0925C753.9323,-512.6266 748.6392,-508.4198 744.1453,-503.3244 604.9992,-345.5512 834.6326,-184.3062 688.1453,-33.3244 648.4832,7.5548 614.753,-34.2831 561.4066,-14.3244"/>
</g>
<!-- \\Anax\\Controller\\SampleController -->
<g id="node20" class="node">
<title>\\Anax\\Controller\\SampleController</title>
<polygon fill="none" stroke="#000000" points="915.1453,-494.3244 790.1453,-494.3244 790.1453,-458.3244 915.1453,-458.3244 915.1453,-494.3244"/>
<text text-anchor="middle" x="852.6453" y="-473.5244" font-family="Courier,monospace" font-size="11.00" fill="#000000">SampleController</text>
</g>
<!-- \\Anax\\Controller\\SampleController&#45;&gt;\\Anax\\Commons\\ContainerInjectableInterface -->
<g id="edge4" class="edge">
<title>\\Anax\\Controller\\SampleController&#45;&gt;\\Anax\\Commons\\ContainerInjectableInterface</title>
<path fill="none" stroke="#000000" stroke-dasharray="1,5" d="M789.9315,-473.4696C772.8581,-469.619 755.865,-462.4108 744.1453,-449.3244 619.6868,-310.3515 819.068,-166.2251 688.1453,-33.3244 648.1732,7.2517 614.753,-34.2831 561.4066,-14.3244"/>
</g>
<!-- \\Anax\\Controller\\SampleJsonController -->
<g id="node21" class="node">
<title>\\Anax\\Controller\\SampleJsonController</title>
<polygon fill="none" stroke="#000000" points="928.6453,-440.3244 776.6453,-440.3244 776.6453,-404.3244 928.6453,-404.3244 928.6453,-440.3244"/>
<text text-anchor="middle" x="852.6453" y="-419.5244" font-family="Courier,monospace" font-size="11.00" fill="#000000">SampleJsonController</text>
</g>
<!-- \\Anax\\Controller\\SampleJsonController&#45;&gt;\\Anax\\Commons\\ContainerInjectableInterface -->
<g id="edge5" class="edge">
<title>\\Anax\\Controller\\SampleJsonController&#45;&gt;\\Anax\\Commons\\ContainerInjectableInterface</title>
<path fill="none" stroke="#000000" stroke-dasharray="1,5" d="M776.5193,-413.2957C764.2676,-408.7136 752.7918,-402.0273 744.1453,-392.3244 636.71,-271.7629 802.6709,-147.1722 688.1453,-33.3244 647.7507,6.8312 614.753,-34.2831 561.4066,-14.3244"/>
</g>
<!-- \\Anax\\Navigation\\Navbar -->
<g id="node22" class="node">
<title>\\Anax\\Navigation\\Navbar</title>
<polygon fill="none" stroke="#000000" points="881.1453,-360.3244 824.1453,-360.3244 824.1453,-324.3244 881.1453,-324.3244 881.1453,-360.3244"/>
<text text-anchor="middle" x="852.6453" y="-339.5244" font-family="Courier,monospace" font-size="11.00" fill="#000000">Navbar</text>
</g>
<!-- \\Anax\\Page\\Page -->
<g id="node23" class="node">
<title>\\Anax\\Page\\Page</title>
<polygon fill="none" stroke="#000000" points="879.6453,-280.3244 825.6453,-280.3244 825.6453,-244.3244 879.6453,-244.3244 879.6453,-280.3244"/>
<text text-anchor="middle" x="852.6453" y="-259.5244" font-family="Courier,monospace" font-size="11.00" fill="#000000">Page</text>
</g>
<!-- \\Anax\\Page\\Page&#45;&gt;\\Anax\\Commons\\ContainerInjectableInterface -->
<g id="edge18" class="edge">
<title>\\Anax\\Page\\Page&#45;&gt;\\Anax\\Commons\\ContainerInjectableInterface</title>
<path fill="none" stroke="#000000" stroke-dasharray="1,5" d="M825.331,-261.9797C800.8608,-260.1854 765.6141,-253.6956 744.1453,-232.3244 679.0288,-167.5037 757.0605,-94.0909 688.1453,-33.3244 645.4236,4.3459 614.753,-34.2831 561.4066,-14.3244"/>
</g>
<!-- \\Anax\\StyleChooser\\StyleChooserController -->
<g id="node24" class="node">
<title>\\Anax\\StyleChooser\\StyleChooserController</title>
<polygon fill="none" stroke="#000000" points="935.1453,-200.3244 770.1453,-200.3244 770.1453,-164.3244 935.1453,-164.3244 935.1453,-200.3244"/>
<text text-anchor="middle" x="852.6453" y="-179.5244" font-family="Courier,monospace" font-size="11.00" fill="#000000">StyleChooserController</text>
</g>
<!-- \\Anax\\StyleChooser\\StyleChooserController&#45;&gt;\\Anax\\Commons\\ContainerInjectableInterface -->
<g id="edge21" class="edge">
<title>\\Anax\\StyleChooser\\StyleChooserController&#45;&gt;\\Anax\\Commons\\ContainerInjectableInterface</title>
<path fill="none" stroke="#000000" stroke-dasharray="1,5" d="M838.8777,-164.225C813.1828,-131.9134 754.4833,-64.7498 688.1453,-33.3244 636.6711,-8.9401 614.753,-34.2831 561.4066,-14.3244"/>
<path fill="none" stroke="#000000" stroke-dasharray="1,5" d="M561.4066,-14.3244C437.8664,31.8964 284.1695,-48.717 216.3124,-90.963"/>
<polygon fill="none" stroke="#000000" points="214.2844,-88.1043 207.7021,-96.4063 218.0249,-94.0211 214.2844,-88.1043"/>
</g>
</g>
</svg>
