<?xml version="1.0" encoding="UTF-8" standalone="no"?>
<!DOCTYPE svg PUBLIC "-//W3C//DTD SVG 1.1//EN"
 "http://www.w3.org/Graphics/SVG/1.1/DTD/svg11.dtd">
<!-- Generated by graphviz version 2.40.1 (20161225.0304)
 -->
<!-- Title: G Pages: 1 -->
<svg width="660pt" height="1204pt"
 viewBox="0.00 0.00 659.67 1204.00" xmlns="http://www.w3.org/2000/svg" xmlns:xlink="http://www.w3.org/1999/xlink">
<g id="graph0" class="graph" transform="scale(1 1) rotate(0) translate(4 1200)">
<title>G</title>
<polygon fill="#ffffff" stroke="transparent" points="-4,4 -4,-1200 655.6678,-1200 655.6678,4 -4,4"/>
<g id="clust1" class="cluster">
<title>cluster_Global</title>
<path fill="none" stroke="#c0c0c0" d="M93.3339,-152C93.3339,-152 631.6678,-152 631.6678,-152 637.6678,-152 643.6678,-158 643.6678,-164 643.6678,-164 643.6678,-1176 643.6678,-1176 643.6678,-1182 637.6678,-1188 631.6678,-1188 631.6678,-1188 93.3339,-1188 93.3339,-1188 87.3339,-1188 81.3339,-1182 81.3339,-1176 81.3339,-1176 81.3339,-164 81.3339,-164 81.3339,-158 87.3339,-152 93.3339,-152"/>
<text text-anchor="middle" x="362.5009" y="-1175.2" font-family="Times,serif" font-size="11.00" fill="#c0c0c0">Global</text>
</g>
<g id="clust2" class="cluster">
<title>cluster_\Anax</title>
<path fill="none" stroke="#c0c0c0" d="M430.6678,-160C430.6678,-160 623.6678,-160 623.6678,-160 629.6678,-160 635.6678,-166 635.6678,-172 635.6678,-172 635.6678,-712 635.6678,-712 635.6678,-718 629.6678,-724 623.6678,-724 623.6678,-724 430.6678,-724 430.6678,-724 424.6678,-724 418.6678,-718 418.6678,-712 418.6678,-712 418.6678,-172 418.6678,-172 418.6678,-166 424.6678,-160 430.6678,-160"/>
<text text-anchor="middle" x="527.1678" y="-711.2" font-family="Times,serif" font-size="11.00" fill="#c0c0c0">Anax</text>
</g>
<g id="clust3" class="cluster">
<title>cluster_\Anax\Controller</title>
<path fill="none" stroke="#c0c0c0" d="M438.6678,-408C438.6678,-408 615.6678,-408 615.6678,-408 621.6678,-408 627.6678,-414 627.6678,-420 627.6678,-420 627.6678,-684 627.6678,-684 627.6678,-690 621.6678,-696 615.6678,-696 615.6678,-696 438.6678,-696 438.6678,-696 432.6678,-696 426.6678,-690 426.6678,-684 426.6678,-684 426.6678,-420 426.6678,-420 426.6678,-414 432.6678,-408 438.6678,-408"/>
<text text-anchor="middle" x="527.1678" y="-683.2" font-family="Times,serif" font-size="11.00" fill="#c0c0c0">Controller</text>
</g>
<g id="clust4" class="cluster">
<title>cluster_\Anax\Navigation</title>
<path fill="none" stroke="#c0c0c0" d="M502.6678,-328C502.6678,-328 551.6678,-328 551.6678,-328 557.6678,-328 563.6678,-334 563.6678,-340 563.6678,-340 563.6678,-388 563.6678,-388 563.6678,-394 557.6678,-400 551.6678,-400 551.6678,-400 502.6678,-400 502.6678,-400 496.6678,-400 490.6678,-394 490.6678,-388 490.6678,-388 490.6678,-340 490.6678,-340 490.6678,-334 496.6678,-328 502.6678,-328"/>
<text text-anchor="middle" x="527.1678" y="-387.2" font-family="Times,serif" font-size="11.00" fill="#c0c0c0">Navigation</text>
</g>
<g id="clust5" class="cluster">
<title>cluster_\Anax\Page</title>
<path fill="none" stroke="#c0c0c0" d="M504.1678,-248C504.1678,-248 550.1678,-248 550.1678,-248 556.1678,-248 562.1678,-254 562.1678,-260 562.1678,-260 562.1678,-308 562.1678,-308 562.1678,-314 556.1678,-320 550.1678,-320 550.1678,-320 504.1678,-320 504.1678,-320 498.1678,-320 492.1678,-314 492.1678,-308 492.1678,-308 492.1678,-260 492.1678,-260 492.1678,-254 498.1678,-248 504.1678,-248"/>
<text text-anchor="middle" x="527.1678" y="-307.2" font-family="Times,serif" font-size="11.00" fill="#c0c0c0">Page</text>
</g>
<g id="clust6" class="cluster">
<title>cluster_\Anax\StyleChooser</title>
<path fill="none" stroke="#c0c0c0" d="M448.6678,-168C448.6678,-168 605.6678,-168 605.6678,-168 611.6678,-168 617.6678,-174 617.6678,-180 617.6678,-180 617.6678,-228 617.6678,-228 617.6678,-234 611.6678,-240 605.6678,-240 605.6678,-240 448.6678,-240 448.6678,-240 442.6678,-240 436.6678,-234 436.6678,-228 436.6678,-228 436.6678,-180 436.6678,-180 436.6678,-174 442.6678,-168 448.6678,-168"/>
<text text-anchor="middle" x="527.1678" y="-227.2" font-family="Times,serif" font-size="11.00" fill="#c0c0c0">StyleChooser</text>
</g>
<g id="clust7" class="cluster">
<title>cluster_\Anna</title>
<path fill="none" stroke="#c0c0c0" d="M101.3339,-732C101.3339,-732 623.6678,-732 623.6678,-732 629.6678,-732 635.6678,-738 635.6678,-744 635.6678,-744 635.6678,-1148 635.6678,-1148 635.6678,-1154 629.6678,-1160 623.6678,-1160 623.6678,-1160 101.3339,-1160 101.3339,-1160 95.3339,-1160 89.3339,-1154 89.3339,-1148 89.3339,-1148 89.3339,-744 89.3339,-744 89.3339,-738 95.3339,-732 101.3339,-732"/>
<text text-anchor="middle" x="362.5009" y="-1147.2" font-family="Times,serif" font-size="11.00" fill="#c0c0c0">Anna</text>
</g>
<g id="clust8" class="cluster">
<title>cluster_\Anna\IpValidatorJson</title>
<path fill="none" stroke="#c0c0c0" d="M438.6678,-980C438.6678,-980 615.6678,-980 615.6678,-980 621.6678,-980 627.6678,-986 627.6678,-992 627.6678,-992 627.6678,-1040 627.6678,-1040 627.6678,-1046 621.6678,-1052 615.6678,-1052 615.6678,-1052 438.6678,-1052 438.6678,-1052 432.6678,-1052 426.6678,-1046 426.6678,-1040 426.6678,-1040 426.6678,-992 426.6678,-992 426.6678,-986 432.6678,-980 438.6678,-980"/>
<text text-anchor="middle" x="527.1678" y="-1039.2" font-family="Times,serif" font-size="11.00" fill="#c0c0c0">IpValidatorJson</text>
</g>
<g id="clust9" class="cluster">
<title>cluster_\Anna\Form4</title>
<path fill="none" stroke="#c0c0c0" d="M158.3339,-1060C158.3339,-1060 561.6678,-1060 561.6678,-1060 567.6678,-1060 573.6678,-1066 573.6678,-1072 573.6678,-1072 573.6678,-1120 573.6678,-1120 573.6678,-1126 567.6678,-1132 561.6678,-1132 561.6678,-1132 158.3339,-1132 158.3339,-1132 152.3339,-1132 146.3339,-1126 146.3339,-1120 146.3339,-1120 146.3339,-1072 146.3339,-1072 146.3339,-1066 152.3339,-1060 158.3339,-1060"/>
<text text-anchor="middle" x="360.0009" y="-1119.2" font-family="Times,serif" font-size="11.00" fill="#c0c0c0">Form4</text>
</g>
<g id="clust10" class="cluster">
<title>cluster_\Anna\Commons</title>
<path fill="none" stroke="#c0c0c0" d="M109.3339,-833C109.3339,-833 253.3339,-833 253.3339,-833 259.3339,-833 265.3339,-839 265.3339,-845 265.3339,-845 265.3339,-947 265.3339,-947 265.3339,-953 259.3339,-959 253.3339,-959 253.3339,-959 109.3339,-959 109.3339,-959 103.3339,-959 97.3339,-953 97.3339,-947 97.3339,-947 97.3339,-845 97.3339,-845 97.3339,-839 103.3339,-833 109.3339,-833"/>
<text text-anchor="middle" x="181.3339" y="-946.2" font-family="Times,serif" font-size="11.00" fill="#c0c0c0">Commons</text>
</g>
<g id="clust11" class="cluster">
<title>cluster_\Anna\Session</title>
<path fill="none" stroke="#c0c0c0" d="M495.6678,-900C495.6678,-900 558.6678,-900 558.6678,-900 564.6678,-900 570.6678,-906 570.6678,-912 570.6678,-912 570.6678,-960 570.6678,-960 570.6678,-966 564.6678,-972 558.6678,-972 558.6678,-972 495.6678,-972 495.6678,-972 489.6678,-972 483.6678,-966 483.6678,-960 483.6678,-960 483.6678,-912 483.6678,-912 483.6678,-906 489.6678,-900 495.6678,-900"/>
<text text-anchor="middle" x="527.1678" y="-959.2" font-family="Times,serif" font-size="11.00" fill="#c0c0c0">Session</text>
</g>
<g id="clust12" class="cluster">
<title>cluster_\Anna\Request</title>
<path fill="none" stroke="#c0c0c0" d="M499.1678,-820C499.1678,-820 555.1678,-820 555.1678,-820 561.1678,-820 567.1678,-826 567.1678,-832 567.1678,-832 567.1678,-880 567.1678,-880 567.1678,-886 561.1678,-892 555.1678,-892 555.1678,-892 499.1678,-892 499.1678,-892 493.1678,-892 487.1678,-886 487.1678,-880 487.1678,-880 487.1678,-832 487.1678,-832 487.1678,-826 493.1678,-820 499.1678,-820"/>
<text text-anchor="middle" x="527.1678" y="-879.2" font-family="Times,serif" font-size="11.00" fill="#c0c0c0">Request</text>
</g>
<g id="clust13" class="cluster">
<title>cluster_\Anna\IpValidator</title>
<path fill="none" stroke="#c0c0c0" d="M452.1678,-740C452.1678,-740 602.1678,-740 602.1678,-740 608.1678,-740 614.1678,-746 614.1678,-752 614.1678,-752 614.1678,-800 614.1678,-800 614.1678,-806 608.1678,-812 602.1678,-812 602.1678,-812 452.1678,-812 452.1678,-812 446.1678,-812 440.1678,-806 440.1678,-800 440.1678,-800 440.1678,-752 440.1678,-752 440.1678,-746 446.1678,-740 452.1678,-740"/>
<text text-anchor="middle" x="527.1678" y="-799.2" font-family="Times,serif" font-size="11.00" fill="#c0c0c0">IpValidator</text>
</g>
<!-- \\Anax\\Controller\\DevelopmentController -->
<g id="node1" class="node">
<title>\\Anax\\Controller\\DevelopmentController</title>
<polygon fill="none" stroke="#000000" points="606.1678,-614 448.1678,-614 448.1678,-578 606.1678,-578 606.1678,-614"/>
<text text-anchor="middle" x="527.1678" y="-593.2" font-family="Courier,monospace" font-size="11.00" fill="#000000">DevelopmentController</text>
</g>
<!-- \\Anax\\Commons\\ContainerInjectableInterface -->
<g id="node17" class="node">
<title>\\Anax\\Commons\\ContainerInjectableInterface</title>
<ellipse fill="none" stroke="#000000" cx="181.3339" cy="-18" rx="181.168" ry="18"/>
<text text-anchor="middle" x="181.3339" y="-14.3" font-family="Times,serif" font-size="14.00" fill="#c0c0c0">\Anax\Commons\ContainerInjectableInterface</text>
</g>
<!-- \\Anax\\Controller\\DevelopmentController&#45;&gt;\\Anax\\Commons\\ContainerInjectableInterface -->
<g id="edge1" class="edge">
<title>\\Anax\\Controller\\DevelopmentController&#45;&gt;\\Anax\\Commons\\ContainerInjectableInterface</title>
<path fill="none" stroke="#000000" stroke-dasharray="1,5" d="M448.0247,-588.5135C436.8456,-584.2356 426.5097,-578.0011 418.6678,-569 264.8147,-392.4047 524.8241,-214.0031 362.6678,-45 358.0402,-40.177 352.9516,-35.9636 347.5088,-32.2922"/>
<polygon fill="none" stroke="#000000" points="349.0489,-29.1336 338.6795,-26.9593 345.4298,-35.1254 349.0489,-29.1336"/>
</g>
<!-- \\Anax\\Controller\\FlatFileContentController -->
<g id="node2" class="node">
<title>\\Anax\\Controller\\FlatFileContentController</title>
<polygon fill="none" stroke="#000000" points="619.6678,-560 434.6678,-560 434.6678,-524 619.6678,-524 619.6678,-560"/>
<text text-anchor="middle" x="527.1678" y="-539.2" font-family="Courier,monospace" font-size="11.00" fill="#000000">FlatFileContentController</text>
</g>
<!-- \\Anax\\Controller\\FlatFileContentController&#45;&gt;\\Anax\\Commons\\ContainerInjectableInterface -->
<g id="edge7" class="edge">
<title>\\Anax\\Controller\\FlatFileContentController&#45;&gt;\\Anax\\Commons\\ContainerInjectableInterface</title>
<path fill="none" stroke="#000000" stroke-dasharray="1,5" d="M434.2447,-527.7682C428.4548,-524.3022 423.1617,-520.0954 418.6678,-515 279.5217,-357.2268 509.2302,-195.9089 362.6678,-45 358.0111,-40.2051 352.8981,-36.0153 347.4351,-32.3633"/>
<polygon fill="none" stroke="#000000" points="348.9548,-29.1938 338.5775,-27.0578 345.3578,-35.199 348.9548,-29.1938"/>
</g>
<!-- \\Anax\\Controller\\ErrorHandlerController -->
<g id="node3" class="node">
<title>\\Anax\\Controller\\ErrorHandlerController</title>
<polygon fill="none" stroke="#000000" points="609.6678,-506 444.6678,-506 444.6678,-470 609.6678,-470 609.6678,-506"/>
<text text-anchor="middle" x="527.1678" y="-485.2" font-family="Courier,monospace" font-size="11.00" fill="#000000">ErrorHandlerController</text>
</g>
<!-- \\Anax\\Controller\\ErrorHandlerController&#45;&gt;\\Anax\\Commons\\ContainerInjectableInterface -->
<g id="edge12" class="edge">
<title>\\Anax\\Controller\\ErrorHandlerController&#45;&gt;\\Anax\\Commons\\ContainerInjectableInterface</title>
<path fill="none" stroke="#000000" stroke-dasharray="1,5" d="M444.4441,-478.7975C434.6957,-474.6298 425.7255,-468.8808 418.6678,-461 294.2093,-322.0272 493.6566,-177.8356 362.6678,-45 357.9747,-40.2407 352.8313,-36.0806 347.3432,-32.4533"/>
<polygon fill="none" stroke="#000000" points="348.8373,-29.2703 338.4502,-27.1824 345.2681,-35.292 348.8373,-29.2703"/>
</g>
<!-- \\Anax\\Controller\\SampleController -->
<g id="node4" class="node">
<title>\\Anax\\Controller\\SampleController</title>
<polygon fill="none" stroke="#000000" points="589.6678,-452 464.6678,-452 464.6678,-416 589.6678,-416 589.6678,-452"/>
<text text-anchor="middle" x="527.1678" y="-431.2" font-family="Courier,monospace" font-size="11.00" fill="#000000">SampleController</text>
</g>
<!-- \\Anax\\Controller\\SampleController&#45;&gt;\\Anax\\Commons\\ContainerInjectableInterface -->
<g id="edge13" class="edge">
<title>\\Anax\\Controller\\SampleController&#45;&gt;\\Anax\\Commons\\ContainerInjectableInterface</title>
<path fill="none" stroke="#000000" stroke-dasharray="1,5" d="M464.5134,-429.1532C447.4419,-424.8225 430.4349,-417.2047 418.6678,-404 311.2325,-283.4385 477.2501,-158.7908 362.6678,-45 357.7364,-40.1026 352.3269,-35.8442 346.5568,-32.1515"/>
<polygon fill="none" stroke="#000000" points="348.2703,-29.0994 337.8586,-27.1374 344.7743,-35.1639 348.2703,-29.0994"/>
</g>
<!-- \\Anax\\Controller\\SampleJsonController -->
<g id="node5" class="node">
<title>\\Anax\\Controller\\SampleJsonController</title>
<polygon fill="none" stroke="#000000" points="603.1678,-668 451.1678,-668 451.1678,-632 603.1678,-632 603.1678,-668"/>
<text text-anchor="middle" x="527.1678" y="-647.2" font-family="Courier,monospace" font-size="11.00" fill="#000000">SampleJsonController</text>
</g>
<!-- \\Anax\\Controller\\SampleJsonController&#45;&gt;\\Anax\\Commons\\ContainerInjectableInterface -->
<g id="edge14" class="edge">
<title>\\Anax\\Controller\\SampleJsonController&#45;&gt;\\Anax\\Commons\\ContainerInjectableInterface</title>
<path fill="none" stroke="#000000" stroke-dasharray="1,5" d="M450.9636,-643.6836C438.6426,-639.3908 427.1625,-632.8481 418.6678,-623 334.3809,-525.2833 451.5502,-138.5562 362.6678,-45 358.136,-40.2299 353.1537,-36.0541 347.8232,-32.4078"/>
<polygon fill="none" stroke="#000000" points="349.5293,-29.3483 339.1749,-27.1043 345.8699,-35.3157 349.5293,-29.3483"/>
</g>
<!-- \\Anax\\Navigation\\Navbar -->
<g id="node6" class="node">
<title>\\Anax\\Navigation\\Navbar</title>
<polygon fill="none" stroke="#000000" points="555.6678,-372 498.6678,-372 498.6678,-336 555.6678,-336 555.6678,-372"/>
<text text-anchor="middle" x="527.1678" y="-351.2" font-family="Courier,monospace" font-size="11.00" fill="#000000">Navbar</text>
</g>
<!-- \\Anax\\Page\\Page -->
<g id="node7" class="node">
<title>\\Anax\\Page\\Page</title>
<polygon fill="none" stroke="#000000" points="554.1678,-292 500.1678,-292 500.1678,-256 554.1678,-256 554.1678,-292"/>
<text text-anchor="middle" x="527.1678" y="-271.2" font-family="Courier,monospace" font-size="11.00" fill="#000000">Page</text>
</g>
<!-- \\Anax\\Page\\Page&#45;&gt;\\Anax\\Commons\\ContainerInjectableInterface -->
<g id="edge4" class="edge">
<title>\\Anax\\Page\\Page&#45;&gt;\\Anax\\Commons\\ContainerInjectableInterface</title>
<path fill="none" stroke="#000000" stroke-dasharray="1,5" d="M499.8535,-273.6553C475.3833,-271.861 440.1366,-265.3712 418.6678,-244 353.5513,-179.1794 431.6133,-105.7322 362.6678,-45 357.085,-40.0822 351.0098,-35.8374 344.5788,-32.1837"/>
<polygon fill="none" stroke="#000000" points="346.0942,-29.0273 335.6015,-27.5599 342.889,-35.2504 346.0942,-29.0273"/>
</g>
<!-- \\Anax\\StyleChooser\\StyleChooserController -->
<g id="node8" class="node">
<title>\\Anax\\StyleChooser\\StyleChooserController</title>
<polygon fill="none" stroke="#000000" points="609.6678,-212 444.6678,-212 444.6678,-176 609.6678,-176 609.6678,-212"/>
<text text-anchor="middle" x="527.1678" y="-191.2" font-family="Courier,monospace" font-size="11.00" fill="#000000">StyleChooserController</text>
</g>
<!-- \\Anax\\StyleChooser\\StyleChooserController&#45;&gt;\\Anax\\Commons\\ContainerInjectableInterface -->
<g id="edge8" class="edge">
<title>\\Anax\\StyleChooser\\StyleChooserController&#45;&gt;\\Anax\\Commons\\ContainerInjectableInterface</title>
<path fill="none" stroke="#000000" stroke-dasharray="1,5" d="M513.4033,-175.8942C487.7133,-143.5721 429.0214,-76.3924 362.6678,-45 352.1034,-40.0019 340.839,-35.8821 329.2927,-32.4915"/>
<polygon fill="none" stroke="#000000" points="330.1067,-29.0855 319.5367,-29.8116 328.2525,-35.8355 330.1067,-29.0855"/>
</g>
<!-- \\Anna\\IpValidatorJson\\IpValidatorJsonController -->
<g id="node9" class="node">
<title>\\Anna\\IpValidatorJson\\IpValidatorJsonController</title>
<polygon fill="none" stroke="#000000" points="619.6678,-1024 434.6678,-1024 434.6678,-988 619.6678,-988 619.6678,-1024"/>
<text text-anchor="middle" x="527.1678" y="-1003.2" font-family="Courier,monospace" font-size="11.00" fill="#000000">IpValidatorJsonController</text>
</g>
<!-- \\Anna\\Commons\\IpValidatorInterface -->
<g id="node12" class="node">
<title>\\Anna\\Commons\\IpValidatorInterface</title>
<polygon fill="none" stroke="#000000" points="257.3339,-931 105.3339,-931 105.3339,-895 257.3339,-895 257.3339,-931"/>
<text text-anchor="middle" x="181.3339" y="-910.2" font-family="Courier,monospace" font-size="11.00" fill="#000000">IpValidatorInterface</text>
</g>
<!-- \\Anna\\IpValidatorJson\\IpValidatorJsonController&#45;&gt;\\Anna\\Commons\\IpValidatorInterface -->
<g id="edge3" class="edge">
<title>\\Anna\\IpValidatorJson\\IpValidatorJsonController&#45;&gt;\\Anna\\Commons\\IpValidatorInterface</title>
<path fill="none" stroke="#000000" stroke-dasharray="1,5" d="M460.0775,-987.9584C402.3033,-972.422 318.9195,-949.9989 258.4157,-933.7285"/>
<polygon fill="none" stroke="#000000" points="259.098,-930.2877 248.5321,-931.0706 257.2801,-937.0475 259.098,-930.2877"/>
</g>
<!-- \\Anna\\IpValidatorJson\\IpValidatorJsonController&#45;&gt;\\Anax\\Commons\\ContainerInjectableInterface -->
<g id="edge2" class="edge">
<title>\\Anna\\IpValidatorJson\\IpValidatorJsonController&#45;&gt;\\Anax\\Commons\\ContainerInjectableInterface</title>
<path fill="none" stroke="#000000" stroke-dasharray="1,5" d="M434.3097,-989.7283C428.4224,-985.9919 423.0949,-981.4683 418.6678,-976 288.2525,-814.9108 502.6569,-197.8428 362.6678,-45 358.2239,-40.148 353.3152,-35.9035 348.0459,-32.2001"/>
<polygon fill="none" stroke="#000000" points="349.8122,-29.1764 339.4836,-26.8163 346.0861,-35.1023 349.8122,-29.1764"/>
</g>
<!-- \\Anna\\Form4\\Form4 -->
<g id="node10" class="node">
<title>\\Anna\\Form4\\Form4</title>
<polygon fill="none" stroke="#000000" points="208.3339,-1104 154.3339,-1104 154.3339,-1068 208.3339,-1068 208.3339,-1104"/>
<text text-anchor="middle" x="181.3339" y="-1083.2" font-family="Courier,monospace" font-size="11.00" fill="#000000">Form4</text>
</g>
<!-- \\Anna\\Form4\\Form4Unit -->
<g id="node11" class="node">
<title>\\Anna\\Form4\\Form4Unit</title>
<polygon fill="none" stroke="#000000" points="565.6678,-1104 488.6678,-1104 488.6678,-1068 565.6678,-1068 565.6678,-1104"/>
<text text-anchor="middle" x="527.1678" y="-1083.2" font-family="Courier,monospace" font-size="11.00" fill="#000000">Form4Unit</text>
</g>
<!-- \\Anna\\Form4\\Form4Unit&#45;&gt;\\Anna\\Form4\\Form4 -->
<g id="edge9" class="edge">
<title>\\Anna\\Form4\\Form4Unit&#45;&gt;\\Anna\\Form4\\Form4</title>
<path fill="none" stroke="#000000" d="M488.5029,-1086C421.5507,-1086 284.8711,-1086 218.7775,-1086"/>
<polygon fill="none" stroke="#000000" points="218.4197,-1082.5001 208.4197,-1086 218.4196,-1089.5001 218.4197,-1082.5001"/>
</g>
<!-- \\Anna\\Commons\\IpValidatorTrait -->
<g id="node13" class="node">
<title>\\Anna\\Commons\\IpValidatorTrait</title>
<polygon fill="none" stroke="#000000" points="243.8339,-877 118.8339,-877 118.8339,-841 243.8339,-841 243.8339,-877"/>
<text text-anchor="middle" x="181.3339" y="-856.2" font-family="Courier,monospace" font-size="11.00" fill="#000000">IpValidatorTrait</text>
</g>
<!-- \\Anna\\Session\\Session2 -->
<g id="node14" class="node">
<title>\\Anna\\Session\\Session2</title>
<polygon fill="none" stroke="#000000" points="562.6678,-944 491.6678,-944 491.6678,-908 562.6678,-908 562.6678,-944"/>
<text text-anchor="middle" x="527.1678" y="-923.2" font-family="Courier,monospace" font-size="11.00" fill="#000000">Session2</text>
</g>
<!-- \\Anax\\Session\\Session -->
<g id="node18" class="node">
<title>\\Anax\\Session\\Session</title>
<ellipse fill="none" stroke="#000000" cx="181.3339" cy="-126" rx="94.7833" ry="18"/>
<text text-anchor="middle" x="181.3339" y="-122.3" font-family="Times,serif" font-size="14.00" fill="#c0c0c0">\Anax\Session\Session</text>
</g>
<!-- \\Anna\\Session\\Session2&#45;&gt;\\Anax\\Session\\Session -->
<g id="edge5" class="edge">
<title>\\Anna\\Session\\Session2&#45;&gt;\\Anax\\Session\\Session</title>
<path fill="none" stroke="#000000" d="M491.5942,-924.7308C468.0326,-922.0397 438.0153,-914.7901 418.6678,-896 306.2902,-786.8599 208.8853,-279.3065 186.2719,-154.016"/>
<polygon fill="none" stroke="#000000" points="189.6959,-153.2803 184.4867,-144.0545 182.8057,-154.5151 189.6959,-153.2803"/>
</g>
<!-- \\Anax\\Session\\SessionInterface -->
<g id="node19" class="node">
<title>\\Anax\\Session\\SessionInterface</title>
<ellipse fill="none" stroke="#000000" cx="181.3339" cy="-72" rx="126.978" ry="18"/>
<text text-anchor="middle" x="181.3339" y="-68.3" font-family="Times,serif" font-size="14.00" fill="#c0c0c0">\Anax\Session\SessionInterface</text>
</g>
<!-- \\Anna\\Session\\Session2&#45;&gt;\\Anax\\Session\\SessionInterface -->
<g id="edge6" class="edge">
<title>\\Anna\\Session\\Session2&#45;&gt;\\Anax\\Session\\SessionInterface</title>
<path fill="none" stroke="#000000" stroke-dasharray="1,5" d="M491.4558,-926.1696C467.0366,-924.215 436.0528,-917.2543 418.6678,-896 306.2566,-758.5703 483.2446,-229.3244 362.6678,-99 349.7504,-85.0383 332.9824,-76.1237 314.8655,-70.6605"/>
<polygon fill="none" stroke="#000000" points="315.5442,-67.2196 304.9812,-68.0402 313.7504,-73.9859 315.5442,-67.2196"/>
</g>
<!-- \\Anna\\Request\\Request -->
<g id="node15" class="node">
<title>\\Anna\\Request\\Request</title>
<polygon fill="none" stroke="#000000" points="559.1678,-864 495.1678,-864 495.1678,-828 559.1678,-828 559.1678,-864"/>
<text text-anchor="middle" x="527.1678" y="-843.2" font-family="Courier,monospace" font-size="11.00" fill="#000000">Request</text>
</g>
<!-- \\Anna\\IpValidator\\IpValidatorController -->
<g id="node16" class="node">
<title>\\Anna\\IpValidator\\IpValidatorController</title>
<polygon fill="none" stroke="#000000" points="606.1678,-784 448.1678,-784 448.1678,-748 606.1678,-748 606.1678,-784"/>
<text text-anchor="middle" x="527.1678" y="-763.2" font-family="Courier,monospace" font-size="11.00" fill="#000000">IpValidatorController</text>
</g>
<!-- \\Anna\\IpValidator\\IpValidatorController&#45;&gt;\\Anna\\Commons\\IpValidatorInterface -->
<g id="edge11" class="edge">
<title>\\Anna\\IpValidator\\IpValidatorController&#45;&gt;\\Anna\\Commons\\IpValidatorInterface</title>
<path fill="none" stroke="#000000" stroke-dasharray="1,5" d="M475.5308,-784.0074C456.5453,-792.067 435.5743,-802.7717 418.6678,-816 387.2897,-840.5514 397.2048,-866.1367 362.6678,-886 334.1614,-902.395 299.1284,-909.9542 267.4802,-913.1391"/>
<polygon fill="none" stroke="#000000" points="266.9938,-909.6682 257.3364,-914.0252 267.603,-916.6417 266.9938,-909.6682"/>
</g>
<!-- \\Anna\\IpValidator\\IpValidatorController&#45;&gt;\\Anax\\Commons\\ContainerInjectableInterface -->
<g id="edge10" class="edge">
<title>\\Anna\\IpValidator\\IpValidatorController&#45;&gt;\\Anax\\Commons\\ContainerInjectableInterface</title>
<path fill="none" stroke="#000000" stroke-dasharray="1,5" d="M477.399,-747.8781C455.6809,-737.329 432.1403,-721.7396 418.6678,-700 341.714,-575.8251 462.6875,-151.477 362.6678,-45 358.163,-40.2044 353.2034,-36.0072 347.8917,-32.3431"/>
<polygon fill="none" stroke="#000000" points="349.6164,-29.2946 339.2698,-27.0146 345.9363,-35.2492 349.6164,-29.2946"/>
</g>
</g>
</svg>
