<?xml version="1.0" encoding="UTF-8" standalone="no"?>
<!DOCTYPE svg PUBLIC "-//W3C//DTD SVG 1.1//EN"
 "http://www.w3.org/Graphics/SVG/1.1/DTD/svg11.dtd">
<!-- Generated by graphviz version 2.40.1 (20161225.0304)
 -->
<!-- Title: G Pages: 1 -->
<svg width="660pt" height="1434pt"
 viewBox="0.00 0.00 659.67 1434.00" xmlns="http://www.w3.org/2000/svg" xmlns:xlink="http://www.w3.org/1999/xlink">
<g id="graph0" class="graph" transform="scale(1 1) rotate(0) translate(4 1430)">
<title>G</title>
<polygon fill="#ffffff" stroke="transparent" points="-4,4 -4,-1430 655.6678,-1430 655.6678,4 -4,4"/>
<g id="clust1" class="cluster">
<title>cluster_Global</title>
<path fill="none" stroke="#c0c0c0" d="M422.6678,-8C422.6678,-8 631.6678,-8 631.6678,-8 637.6678,-8 643.6678,-14 643.6678,-20 643.6678,-20 643.6678,-1406 643.6678,-1406 643.6678,-1412 637.6678,-1418 631.6678,-1418 631.6678,-1418 422.6678,-1418 422.6678,-1418 416.6678,-1418 410.6678,-1412 410.6678,-1406 410.6678,-1406 410.6678,-20 410.6678,-20 410.6678,-14 416.6678,-8 422.6678,-8"/>
<text text-anchor="middle" x="527.1678" y="-1405.2" font-family="Times,serif" font-size="11.00" fill="#c0c0c0">Global</text>
</g>
<g id="clust2" class="cluster">
<title>cluster_\Anax</title>
<path fill="none" stroke="#c0c0c0" d="M430.6678,-826C430.6678,-826 623.6678,-826 623.6678,-826 629.6678,-826 635.6678,-832 635.6678,-838 635.6678,-838 635.6678,-1378 635.6678,-1378 635.6678,-1384 629.6678,-1390 623.6678,-1390 623.6678,-1390 430.6678,-1390 430.6678,-1390 424.6678,-1390 418.6678,-1384 418.6678,-1378 418.6678,-1378 418.6678,-838 418.6678,-838 418.6678,-832 424.6678,-826 430.6678,-826"/>
<text text-anchor="middle" x="527.1678" y="-1377.2" font-family="Times,serif" font-size="11.00" fill="#c0c0c0">Anax</text>
</g>
<g id="clust3" class="cluster">
<title>cluster_\Anax\Controller</title>
<path fill="none" stroke="#c0c0c0" d="M438.6678,-1074C438.6678,-1074 615.6678,-1074 615.6678,-1074 621.6678,-1074 627.6678,-1080 627.6678,-1086 627.6678,-1086 627.6678,-1350 627.6678,-1350 627.6678,-1356 621.6678,-1362 615.6678,-1362 615.6678,-1362 438.6678,-1362 438.6678,-1362 432.6678,-1362 426.6678,-1356 426.6678,-1350 426.6678,-1350 426.6678,-1086 426.6678,-1086 426.6678,-1080 432.6678,-1074 438.6678,-1074"/>
<text text-anchor="middle" x="527.1678" y="-1349.2" font-family="Times,serif" font-size="11.00" fill="#c0c0c0">Controller</text>
</g>
<g id="clust4" class="cluster">
<title>cluster_\Anax\Navigation</title>
<path fill="none" stroke="#c0c0c0" d="M502.6678,-994C502.6678,-994 551.6678,-994 551.6678,-994 557.6678,-994 563.6678,-1000 563.6678,-1006 563.6678,-1006 563.6678,-1054 563.6678,-1054 563.6678,-1060 557.6678,-1066 551.6678,-1066 551.6678,-1066 502.6678,-1066 502.6678,-1066 496.6678,-1066 490.6678,-1060 490.6678,-1054 490.6678,-1054 490.6678,-1006 490.6678,-1006 490.6678,-1000 496.6678,-994 502.6678,-994"/>
<text text-anchor="middle" x="527.1678" y="-1053.2" font-family="Times,serif" font-size="11.00" fill="#c0c0c0">Navigation</text>
</g>
<g id="clust5" class="cluster">
<title>cluster_\Anax\Page</title>
<path fill="none" stroke="#c0c0c0" d="M504.1678,-914C504.1678,-914 550.1678,-914 550.1678,-914 556.1678,-914 562.1678,-920 562.1678,-926 562.1678,-926 562.1678,-974 562.1678,-974 562.1678,-980 556.1678,-986 550.1678,-986 550.1678,-986 504.1678,-986 504.1678,-986 498.1678,-986 492.1678,-980 492.1678,-974 492.1678,-974 492.1678,-926 492.1678,-926 492.1678,-920 498.1678,-914 504.1678,-914"/>
<text text-anchor="middle" x="527.1678" y="-973.2" font-family="Times,serif" font-size="11.00" fill="#c0c0c0">Page</text>
</g>
<g id="clust6" class="cluster">
<title>cluster_\Anax\StyleChooser</title>
<path fill="none" stroke="#c0c0c0" d="M448.6678,-834C448.6678,-834 605.6678,-834 605.6678,-834 611.6678,-834 617.6678,-840 617.6678,-846 617.6678,-846 617.6678,-894 617.6678,-894 617.6678,-900 611.6678,-906 605.6678,-906 605.6678,-906 448.6678,-906 448.6678,-906 442.6678,-906 436.6678,-900 436.6678,-894 436.6678,-894 436.6678,-846 436.6678,-846 436.6678,-840 442.6678,-834 448.6678,-834"/>
<text text-anchor="middle" x="527.1678" y="-893.2" font-family="Times,serif" font-size="11.00" fill="#c0c0c0">StyleChooser</text>
</g>
<g id="clust7" class="cluster">
<title>cluster_\Anna</title>
<path fill="none" stroke="#c0c0c0" d="M430.6678,-16C430.6678,-16 623.6678,-16 623.6678,-16 629.6678,-16 635.6678,-22 635.6678,-28 635.6678,-28 635.6678,-806 635.6678,-806 635.6678,-812 629.6678,-818 623.6678,-818 623.6678,-818 430.6678,-818 430.6678,-818 424.6678,-818 418.6678,-812 418.6678,-806 418.6678,-806 418.6678,-28 418.6678,-28 418.6678,-22 424.6678,-16 430.6678,-16"/>
<text text-anchor="middle" x="527.1678" y="-805.2" font-family="Times,serif" font-size="11.00" fill="#c0c0c0">Anna</text>
</g>
<g id="clust8" class="cluster">
<title>cluster_\Anna\IpValidatorJson</title>
<path fill="none" stroke="#c0c0c0" d="M438.6678,-718C438.6678,-718 615.6678,-718 615.6678,-718 621.6678,-718 627.6678,-724 627.6678,-730 627.6678,-730 627.6678,-778 627.6678,-778 627.6678,-784 621.6678,-790 615.6678,-790 615.6678,-790 438.6678,-790 438.6678,-790 432.6678,-790 426.6678,-784 426.6678,-778 426.6678,-778 426.6678,-730 426.6678,-730 426.6678,-724 432.6678,-718 438.6678,-718"/>
<text text-anchor="middle" x="527.1678" y="-777.2" font-family="Times,serif" font-size="11.00" fill="#c0c0c0">IpValidatorJson</text>
</g>
<g id="clust9" class="cluster">
<title>cluster_\Anna\Result</title>
<path fill="none" stroke="#c0c0c0" d="M502.6678,-638C502.6678,-638 551.6678,-638 551.6678,-638 557.6678,-638 563.6678,-644 563.6678,-650 563.6678,-650 563.6678,-698 563.6678,-698 563.6678,-704 557.6678,-710 551.6678,-710 551.6678,-710 502.6678,-710 502.6678,-710 496.6678,-710 490.6678,-704 490.6678,-698 490.6678,-698 490.6678,-650 490.6678,-650 490.6678,-644 496.6678,-638 502.6678,-638"/>
<text text-anchor="middle" x="527.1678" y="-697.2" font-family="Times,serif" font-size="11.00" fill="#c0c0c0">Result</text>
</g>
<g id="clust10" class="cluster">
<title>cluster_\Anna\GeoLocator</title>
<path fill="none" stroke="#c0c0c0" d="M455.1678,-558C455.1678,-558 599.1678,-558 599.1678,-558 605.1678,-558 611.1678,-564 611.1678,-570 611.1678,-570 611.1678,-618 611.1678,-618 611.1678,-624 605.1678,-630 599.1678,-630 599.1678,-630 455.1678,-630 455.1678,-630 449.1678,-630 443.1678,-624 443.1678,-618 443.1678,-618 443.1678,-570 443.1678,-570 443.1678,-564 449.1678,-558 455.1678,-558"/>
<text text-anchor="middle" x="527.1678" y="-617.2" font-family="Times,serif" font-size="11.00" fill="#c0c0c0">GeoLocator</text>
</g>
<g id="clust11" class="cluster">
<title>cluster_\Anna\Api</title>
<path fill="none" stroke="#c0c0c0" d="M479.1678,-478C479.1678,-478 575.1678,-478 575.1678,-478 581.1678,-478 587.1678,-484 587.1678,-490 587.1678,-490 587.1678,-538 587.1678,-538 587.1678,-544 581.1678,-550 575.1678,-550 575.1678,-550 479.1678,-550 479.1678,-550 473.1678,-550 467.1678,-544 467.1678,-538 467.1678,-538 467.1678,-490 467.1678,-490 467.1678,-484 473.1678,-478 479.1678,-478"/>
<text text-anchor="middle" x="527.1678" y="-537.2" font-family="Times,serif" font-size="11.00" fill="#c0c0c0">Api</text>
</g>
<g id="clust12" class="cluster">
<title>cluster_\Anna\IpValidator</title>
<path fill="none" stroke="#c0c0c0" d="M452.1678,-344C452.1678,-344 602.1678,-344 602.1678,-344 608.1678,-344 614.1678,-350 614.1678,-356 614.1678,-356 614.1678,-458 614.1678,-458 614.1678,-464 608.1678,-470 602.1678,-470 602.1678,-470 452.1678,-470 452.1678,-470 446.1678,-470 440.1678,-464 440.1678,-458 440.1678,-458 440.1678,-356 440.1678,-356 440.1678,-350 446.1678,-344 452.1678,-344"/>
<text text-anchor="middle" x="527.1678" y="-457.2" font-family="Times,serif" font-size="11.00" fill="#c0c0c0">IpValidator</text>
</g>
<g id="clust13" class="cluster">
<title>cluster_\Anna\GeoLocatorJson</title>
<path fill="none" stroke="#c0c0c0" d="M441.6678,-264C441.6678,-264 612.6678,-264 612.6678,-264 618.6678,-264 624.6678,-270 624.6678,-276 624.6678,-276 624.6678,-324 624.6678,-324 624.6678,-330 618.6678,-336 612.6678,-336 612.6678,-336 441.6678,-336 441.6678,-336 435.6678,-336 429.6678,-330 429.6678,-324 429.6678,-324 429.6678,-276 429.6678,-276 429.6678,-270 435.6678,-264 441.6678,-264"/>
<text text-anchor="middle" x="527.1678" y="-323.2" font-family="Times,serif" font-size="11.00" fill="#c0c0c0">GeoLocatorJson</text>
</g>
<g id="clust14" class="cluster">
<title>cluster_\Anna\Form3</title>
<path fill="none" stroke="#c0c0c0" d="M504.1678,-184C504.1678,-184 550.1678,-184 550.1678,-184 556.1678,-184 562.1678,-190 562.1678,-196 562.1678,-196 562.1678,-244 562.1678,-244 562.1678,-250 556.1678,-256 550.1678,-256 550.1678,-256 504.1678,-256 504.1678,-256 498.1678,-256 492.1678,-250 492.1678,-244 492.1678,-244 492.1678,-196 492.1678,-196 492.1678,-190 498.1678,-184 504.1678,-184"/>
<text text-anchor="middle" x="527.1678" y="-243.2" font-family="Times,serif" font-size="11.00" fill="#c0c0c0">Form3</text>
</g>
<g id="clust15" class="cluster">
<title>cluster_\Anna\Curl</title>
<path fill="none" stroke="#c0c0c0" d="M504.1678,-104C504.1678,-104 550.1678,-104 550.1678,-104 556.1678,-104 562.1678,-110 562.1678,-116 562.1678,-116 562.1678,-164 562.1678,-164 562.1678,-170 556.1678,-176 550.1678,-176 550.1678,-176 504.1678,-176 504.1678,-176 498.1678,-176 492.1678,-170 492.1678,-164 492.1678,-164 492.1678,-116 492.1678,-116 492.1678,-110 498.1678,-104 504.1678,-104"/>
<text text-anchor="middle" x="527.1678" y="-163.2" font-family="Times,serif" font-size="11.00" fill="#c0c0c0">Curl</text>
</g>
<g id="clust16" class="cluster">
<title>cluster_\Anna\Weather</title>
<path fill="none" stroke="#c0c0c0" d="M465.6678,-24C465.6678,-24 588.6678,-24 588.6678,-24 594.6678,-24 600.6678,-30 600.6678,-36 600.6678,-36 600.6678,-84 600.6678,-84 600.6678,-90 594.6678,-96 588.6678,-96 588.6678,-96 465.6678,-96 465.6678,-96 459.6678,-96 453.6678,-90 453.6678,-84 453.6678,-84 453.6678,-36 453.6678,-36 453.6678,-30 459.6678,-24 465.6678,-24"/>
<text text-anchor="middle" x="527.1678" y="-83.2" font-family="Times,serif" font-size="11.00" fill="#c0c0c0">Weather</text>
</g>
<!-- \\Anax\\Controller\\DevelopmentController -->
<g id="node1" class="node">
<title>\\Anax\\Controller\\DevelopmentController</title>
<polygon fill="none" stroke="#000000" points="606.1678,-1334 448.1678,-1334 448.1678,-1298 606.1678,-1298 606.1678,-1334"/>
<text text-anchor="middle" x="527.1678" y="-1313.2" font-family="Courier,monospace" font-size="11.00" fill="#000000">DevelopmentController</text>
</g>
<!-- \\Anax\\Commons\\ContainerInjectableInterface -->
<g id="node19" class="node">
<title>\\Anax\\Commons\\ContainerInjectableInterface</title>
<ellipse fill="none" stroke="#000000" cx="181.3339" cy="-860" rx="181.168" ry="18"/>
<text text-anchor="middle" x="181.3339" y="-856.3" font-family="Times,serif" font-size="14.00" fill="#c0c0c0">\Anax\Commons\ContainerInjectableInterface</text>
</g>
<!-- \\Anax\\Controller\\DevelopmentController&#45;&gt;\\Anax\\Commons\\ContainerInjectableInterface -->
<g id="edge1" class="edge">
<title>\\Anax\\Controller\\DevelopmentController&#45;&gt;\\Anax\\Commons\\ContainerInjectableInterface</title>
<path fill="none" stroke="#000000" stroke-dasharray="1,5" d="M447.8798,-1307.231C434.5567,-1303.1657 421.5447,-1297.3342 410.6678,-1289 271.092,-1182.0535 206.8549,-965.2969 187.7346,-888.0913"/>
<polygon fill="none" stroke="#000000" points="191.0833,-887.0479 185.3329,-878.1494 184.279,-888.6917 191.0833,-887.0479"/>
</g>
<!-- \\Anax\\Controller\\FlatFileContentController -->
<g id="node2" class="node">
<title>\\Anax\\Controller\\FlatFileContentController</title>
<polygon fill="none" stroke="#000000" points="619.6678,-1280 434.6678,-1280 434.6678,-1244 619.6678,-1244 619.6678,-1280"/>
<text text-anchor="middle" x="527.1678" y="-1259.2" font-family="Courier,monospace" font-size="11.00" fill="#000000">FlatFileContentController</text>
</g>
<!-- \\Anax\\Controller\\FlatFileContentController&#45;&gt;\\Anax\\Commons\\ContainerInjectableInterface -->
<g id="edge6" class="edge">
<title>\\Anax\\Controller\\FlatFileContentController&#45;&gt;\\Anax\\Commons\\ContainerInjectableInterface</title>
<path fill="none" stroke="#000000" stroke-dasharray="1,5" d="M434.4622,-1247.8751C426.0039,-1244.4519 417.9086,-1240.2223 410.6678,-1235 284.091,-1143.7094 213.3956,-958.9692 190.0749,-888.3373"/>
<polygon fill="none" stroke="#000000" points="193.265,-886.827 186.8569,-878.3898 186.6049,-888.9817 193.265,-886.827"/>
</g>
<!-- \\Anax\\Controller\\ErrorHandlerController -->
<g id="node3" class="node">
<title>\\Anax\\Controller\\ErrorHandlerController</title>
<polygon fill="none" stroke="#000000" points="609.6678,-1226 444.6678,-1226 444.6678,-1190 609.6678,-1190 609.6678,-1226"/>
<text text-anchor="middle" x="527.1678" y="-1205.2" font-family="Courier,monospace" font-size="11.00" fill="#000000">ErrorHandlerController</text>
</g>
<!-- \\Anax\\Controller\\ErrorHandlerController&#45;&gt;\\Anax\\Commons\\ContainerInjectableInterface -->
<g id="edge10" class="edge">
<title>\\Anax\\Controller\\ErrorHandlerController&#45;&gt;\\Anax\\Commons\\ContainerInjectableInterface</title>
<path fill="none" stroke="#000000" stroke-dasharray="1,5" d="M444.4731,-1196.7322C432.5308,-1192.9088 420.8526,-1187.8059 410.6678,-1181 296.0725,-1104.4225 219.93,-949.8871 192.5965,-887.2727"/>
<polygon fill="none" stroke="#000000" points="195.7928,-885.8457 188.6303,-878.0387 189.361,-888.6083 195.7928,-885.8457"/>
</g>
<!-- \\Anax\\Controller\\SampleController -->
<g id="node4" class="node">
<title>\\Anax\\Controller\\SampleController</title>
<polygon fill="none" stroke="#000000" points="589.6678,-1172 464.6678,-1172 464.6678,-1136 589.6678,-1136 589.6678,-1172"/>
<text text-anchor="middle" x="527.1678" y="-1151.2" font-family="Courier,monospace" font-size="11.00" fill="#000000">SampleController</text>
</g>
<!-- \\Anax\\Controller\\SampleController&#45;&gt;\\Anax\\Commons\\ContainerInjectableInterface -->
<g id="edge11" class="edge">
<title>\\Anax\\Controller\\SampleController&#45;&gt;\\Anax\\Commons\\ContainerInjectableInterface</title>
<path fill="none" stroke="#000000" stroke-dasharray="1,5" d="M464.506,-1147.0049C446.2218,-1143.0258 426.8294,-1136.7855 410.6678,-1127 308.1369,-1064.9194 228.0881,-941.2197 196.2641,-886.7756"/>
<polygon fill="none" stroke="#000000" points="199.2581,-884.9612 191.2301,-878.0473 193.1943,-888.4585 199.2581,-884.9612"/>
</g>
<!-- \\Anax\\Controller\\SampleJsonController -->
<g id="node5" class="node">
<title>\\Anax\\Controller\\SampleJsonController</title>
<polygon fill="none" stroke="#000000" points="603.1678,-1118 451.1678,-1118 451.1678,-1082 603.1678,-1082 603.1678,-1118"/>
<text text-anchor="middle" x="527.1678" y="-1097.2" font-family="Courier,monospace" font-size="11.00" fill="#000000">SampleJsonController</text>
</g>
<!-- \\Anax\\Controller\\SampleJsonController&#45;&gt;\\Anax\\Commons\\ContainerInjectableInterface -->
<g id="edge13" class="edge">
<title>\\Anax\\Controller\\SampleJsonController&#45;&gt;\\Anax\\Commons\\ContainerInjectableInterface</title>
<path fill="none" stroke="#000000" stroke-dasharray="1,5" d="M451.1616,-1086.1758C437.2262,-1082.0573 423.1536,-1076.7681 410.6678,-1070 321.0838,-1021.4401 238.9299,-930.3256 201.95,-885.8072"/>
<polygon fill="none" stroke="#000000" points="204.6333,-883.5597 195.5792,-878.0577 199.226,-888.0051 204.6333,-883.5597"/>
</g>
<!-- \\Anax\\Navigation\\Navbar -->
<g id="node6" class="node">
<title>\\Anax\\Navigation\\Navbar</title>
<polygon fill="none" stroke="#000000" points="555.6678,-1038 498.6678,-1038 498.6678,-1002 555.6678,-1002 555.6678,-1038"/>
<text text-anchor="middle" x="527.1678" y="-1017.2" font-family="Courier,monospace" font-size="11.00" fill="#000000">Navbar</text>
</g>
<!-- \\Anax\\Page\\Page -->
<g id="node7" class="node">
<title>\\Anax\\Page\\Page</title>
<polygon fill="none" stroke="#000000" points="554.1678,-958 500.1678,-958 500.1678,-922 554.1678,-922 554.1678,-958"/>
<text text-anchor="middle" x="527.1678" y="-937.2" font-family="Courier,monospace" font-size="11.00" fill="#000000">Page</text>
</g>
<!-- \\Anax\\Page\\Page&#45;&gt;\\Anax\\Commons\\ContainerInjectableInterface -->
<g id="edge5" class="edge">
<title>\\Anax\\Page\\Page&#45;&gt;\\Anax\\Commons\\ContainerInjectableInterface</title>
<path fill="none" stroke="#000000" stroke-dasharray="1,5" d="M500.0308,-933.7225C449.5895,-922.0542 339.5687,-896.6037 263.0015,-878.8918"/>
<polygon fill="none" stroke="#000000" points="263.4307,-875.3987 252.8991,-876.5548 261.853,-882.2186 263.4307,-875.3987"/>
</g>
<!-- \\Anax\\StyleChooser\\StyleChooserController -->
<g id="node8" class="node">
<title>\\Anax\\StyleChooser\\StyleChooserController</title>
<polygon fill="none" stroke="#000000" points="609.6678,-878 444.6678,-878 444.6678,-842 609.6678,-842 609.6678,-878"/>
<text text-anchor="middle" x="527.1678" y="-857.2" font-family="Courier,monospace" font-size="11.00" fill="#000000">StyleChooserController</text>
</g>
<!-- \\Anax\\StyleChooser\\StyleChooserController&#45;&gt;\\Anax\\Commons\\ContainerInjectableInterface -->
<g id="edge7" class="edge">
<title>\\Anax\\StyleChooser\\StyleChooserController&#45;&gt;\\Anax\\Commons\\ContainerInjectableInterface</title>
<path fill="none" stroke="#000000" stroke-dasharray="1,5" d="M444.332,-860C422.4571,-860 397.9137,-860 372.8429,-860"/>
<polygon fill="none" stroke="#000000" points="372.8361,-856.5001 362.8361,-860 372.836,-863.5001 372.8361,-856.5001"/>
</g>
<!-- \\Anna\\IpValidatorJson\\IpValidatorJsonController -->
<g id="node9" class="node">
<title>\\Anna\\IpValidatorJson\\IpValidatorJsonController</title>
<polygon fill="none" stroke="#000000" points="619.6678,-762 434.6678,-762 434.6678,-726 619.6678,-726 619.6678,-762"/>
<text text-anchor="middle" x="527.1678" y="-741.2" font-family="Courier,monospace" font-size="11.00" fill="#000000">IpValidatorJsonController</text>
</g>
<!-- \\Anna\\IpValidatorJson\\IpValidatorJsonController&#45;&gt;\\Anax\\Commons\\ContainerInjectableInterface -->
<g id="edge2" class="edge">
<title>\\Anna\\IpValidatorJson\\IpValidatorJsonController&#45;&gt;\\Anax\\Commons\\ContainerInjectableInterface</title>
<path fill="none" stroke="#000000" stroke-dasharray="1,5" d="M473.1313,-762.125C410.7007,-783.0655 308.1988,-817.4468 242.7855,-839.3878"/>
<polygon fill="none" stroke="#000000" points="241.3831,-836.1665 233.0153,-842.665 243.6092,-842.8031 241.3831,-836.1665"/>
</g>
<!-- \\Anna\\Result\\Result -->
<g id="node10" class="node">
<title>\\Anna\\Result\\Result</title>
<polygon fill="none" stroke="#000000" points="555.6678,-682 498.6678,-682 498.6678,-646 555.6678,-646 555.6678,-682"/>
<text text-anchor="middle" x="527.1678" y="-661.2" font-family="Courier,monospace" font-size="11.00" fill="#000000">Result</text>
</g>
<!-- \\Anna\\GeoLocator\\GeoLocatorController -->
<g id="node11" class="node">
<title>\\Anna\\GeoLocator\\GeoLocatorController</title>
<polygon fill="none" stroke="#000000" points="603.1678,-602 451.1678,-602 451.1678,-566 603.1678,-566 603.1678,-602"/>
<text text-anchor="middle" x="527.1678" y="-581.2" font-family="Courier,monospace" font-size="11.00" fill="#000000">GeoLocatorController</text>
</g>
<!-- \\Anna\\GeoLocator\\GeoLocatorController&#45;&gt;\\Anax\\Commons\\ContainerInjectableInterface -->
<g id="edge3" class="edge">
<title>\\Anna\\GeoLocator\\GeoLocatorController&#45;&gt;\\Anax\\Commons\\ContainerInjectableInterface</title>
<path fill="none" stroke="#000000" stroke-dasharray="1,5" d="M473.6994,-602.0942C453.1133,-610.279 429.94,-621.0475 410.6678,-634 322.8789,-693.0014 239.5733,-788.2547 202.0862,-833.9336"/>
<polygon fill="none" stroke="#000000" points="199.2278,-831.901 195.629,-841.866 204.6565,-836.3202 199.2278,-831.901"/>
</g>
<!-- \\Anna\\Api\\ApiController -->
<g id="node12" class="node">
<title>\\Anna\\Api\\ApiController</title>
<polygon fill="none" stroke="#000000" points="579.1678,-522 475.1678,-522 475.1678,-486 579.1678,-486 579.1678,-522"/>
<text text-anchor="middle" x="527.1678" y="-501.2" font-family="Courier,monospace" font-size="11.00" fill="#000000">ApiController</text>
</g>
<!-- \\Anna\\Api\\ApiController&#45;&gt;\\Anax\\Commons\\ContainerInjectableInterface -->
<g id="edge4" class="edge">
<title>\\Anna\\Api\\ApiController&#45;&gt;\\Anax\\Commons\\ContainerInjectableInterface</title>
<path fill="none" stroke="#000000" stroke-dasharray="1,5" d="M474.9877,-519.743C453.6626,-527.7981 429.6104,-539.0995 410.6678,-554 307.1155,-635.4559 226.2954,-774.5098 195.1921,-832.9112"/>
<polygon fill="none" stroke="#000000" points="192.026,-831.412 190.4644,-841.8911 198.22,-834.673 192.026,-831.412"/>
</g>
<!-- \\Anna\\IpValidator\\IpValidator -->
<g id="node13" class="node">
<title>\\Anna\\IpValidator\\IpValidator</title>
<polygon fill="none" stroke="#000000" points="572.6678,-442 481.6678,-442 481.6678,-406 572.6678,-406 572.6678,-442"/>
<text text-anchor="middle" x="527.1678" y="-421.2" font-family="Courier,monospace" font-size="11.00" fill="#000000">IpValidator</text>
</g>
<!-- \\Anna\\IpValidator\\IpValidatorController -->
<g id="node14" class="node">
<title>\\Anna\\IpValidator\\IpValidatorController</title>
<polygon fill="none" stroke="#000000" points="606.1678,-388 448.1678,-388 448.1678,-352 606.1678,-352 606.1678,-388"/>
<text text-anchor="middle" x="527.1678" y="-367.2" font-family="Courier,monospace" font-size="11.00" fill="#000000">IpValidatorController</text>
</g>
<!-- \\Anna\\IpValidator\\IpValidatorController&#45;&gt;\\Anax\\Commons\\ContainerInjectableInterface -->
<g id="edge9" class="edge">
<title>\\Anna\\IpValidator\\IpValidatorController&#45;&gt;\\Anax\\Commons\\ContainerInjectableInterface</title>
<path fill="none" stroke="#000000" stroke-dasharray="1,5" d="M447.9664,-378.3991C434.5592,-382.4959 421.4956,-388.4337 410.6678,-397 262.888,-513.9154 203.2162,-750.7154 186.5608,-831.9253"/>
<polygon fill="none" stroke="#000000" points="183.0954,-831.4067 184.5735,-841.8979 189.9604,-832.7748 183.0954,-831.4067"/>
</g>
<!-- \\Anna\\GeoLocatorJson\\GeoLocatorJsonController -->
<g id="node15" class="node">
<title>\\Anna\\GeoLocatorJson\\GeoLocatorJsonController</title>
<polygon fill="none" stroke="#000000" points="616.6678,-308 437.6678,-308 437.6678,-272 616.6678,-272 616.6678,-308"/>
<text text-anchor="middle" x="527.1678" y="-287.2" font-family="Courier,monospace" font-size="11.00" fill="#000000">GeoLocatorJsonController</text>
</g>
<!-- \\Anna\\GeoLocatorJson\\GeoLocatorJsonController&#45;&gt;\\Anax\\Commons\\ContainerInjectableInterface -->
<g id="edge8" class="edge">
<title>\\Anna\\GeoLocatorJson\\GeoLocatorJsonController&#45;&gt;\\Anax\\Commons\\ContainerInjectableInterface</title>
<path fill="none" stroke="#000000" stroke-dasharray="1,5" d="M461.7996,-308.1003C443.5288,-315.6311 424.8225,-325.9855 410.6678,-340 262.4053,-486.7935 202.6034,-745.8678 186.2812,-831.5812"/>
<polygon fill="none" stroke="#000000" points="182.8044,-831.1347 184.422,-841.6053 189.687,-832.4113 182.8044,-831.1347"/>
</g>
<!-- \\Anna\\Form3\\Form3 -->
<g id="node16" class="node">
<title>\\Anna\\Form3\\Form3</title>
<polygon fill="none" stroke="#000000" points="554.1678,-228 500.1678,-228 500.1678,-192 554.1678,-192 554.1678,-228"/>
<text text-anchor="middle" x="527.1678" y="-207.2" font-family="Courier,monospace" font-size="11.00" fill="#000000">Form3</text>
</g>
<!-- \\Anna\\Curl\\Curl -->
<g id="node17" class="node">
<title>\\Anna\\Curl\\Curl</title>
<polygon fill="none" stroke="#000000" points="554.1678,-148 500.1678,-148 500.1678,-112 554.1678,-112 554.1678,-148"/>
<text text-anchor="middle" x="527.1678" y="-127.2" font-family="Courier,monospace" font-size="11.00" fill="#000000">Curl</text>
</g>
<!-- \\Anna\\Weather\\WeatherController -->
<g id="node18" class="node">
<title>\\Anna\\Weather\\WeatherController</title>
<polygon fill="none" stroke="#000000" points="592.6678,-68 461.6678,-68 461.6678,-32 592.6678,-32 592.6678,-68"/>
<text text-anchor="middle" x="527.1678" y="-47.2" font-family="Courier,monospace" font-size="11.00" fill="#000000">WeatherController</text>
</g>
<!-- \\Anna\\Weather\\WeatherController&#45;&gt;\\Anax\\Commons\\ContainerInjectableInterface -->
<g id="edge12" class="edge">
<title>\\Anna\\Weather\\WeatherController&#45;&gt;\\Anax\\Commons\\ContainerInjectableInterface</title>
<path fill="none" stroke="#000000" stroke-dasharray="1,5" d="M461.6026,-66.6783C443.0002,-74.1963 424.1596,-84.9005 410.6678,-100 308.0552,-214.8402 209.8235,-708.3803 186.5265,-831.8935"/>
<polygon fill="none" stroke="#000000" points="183.0848,-831.2579 184.6822,-841.7316 189.9649,-832.5477 183.0848,-831.2579"/>
</g>
</g>
</svg>
