<?xml version="1.0" standalone="no"?>
<!DOCTYPE svg PUBLIC "-//W3C//DTD SVG 20010904//EN"
 "http://www.w3.org/TR/2001/REC-SVG-20010904/DTD/svg10.dtd">
<svg version="1.0" xmlns="http://www.w3.org/2000/svg"
 width="277.000000pt" height="277.000000pt" viewBox="0 0 277.000000 277.000000"
 preserveAspectRatio="xMidYMid meet">
<metadata>
Created by potrace 1.11, written by Peter Selinger 2001-2013
</metadata>
<g transform="translate(0.000000,277.000000) scale(0.100000,-0.100000)"
fill="#000000" stroke="none">
<path d="M24 2761 c4 -6 2 -11 -3 -11 -7 0 -11 -23 -11 -55 l0 -55 58 0 58 0
-4 40 c-2 23 0 40 6 40 6 0 9 -12 7 -27 -5 -46 3 -53 61 -53 l54 0 0 55 c0 37
-4 56 -12 57 -7 0 -17 2 -23 2 -5 1 -16 5 -24 10 -9 6 -12 5 -7 -2 4 -8 -3
-10 -25 -7 -23 3 -29 0 -25 -11 3 -8 1 -14 -3 -14 -5 0 -12 7 -15 16 -3 9 -12
14 -20 11 -7 -3 -19 0 -26 6 -10 9 -11 9 -6 0 9 -16 1 -16 -26 -2 -15 8 -19 8
-14 0z"/>
<path d="M304 2762 c5 -8 -1 -11 -16 -9 -21 2 -23 -2 -26 -55 l-3 -58 56 0
c56 0 61 4 56 48 -1 6 2 12 7 12 5 0 9 -12 8 -27 -1 -27 1 -28 57 -31 l57 -3
0 60 c0 34 -5 63 -12 67 -6 4 -8 3 -4 -4 7 -12 -32 -11 -53 3 -10 5 -12 4 -7
-3 10 -16 -7 -15 -23 1 -11 10 -12 9 -7 -1 6 -10 -1 -12 -31 -10 -21 2 -45 8
-52 13 -10 5 -12 4 -7 -3z m86 -37 c0 -8 -4 -15 -8 -15 -5 0 -9 7 -9 15 0 8 4
15 9 15 4 0 8 -7 8 -15z"/>
<path d="M544 2761 c6 -8 2 -11 -10 -9 -16 3 -19 -5 -22 -55 l-3 -58 58 3 58
3 2 51 c2 39 -2 55 -14 65 -10 8 -14 9 -10 2 8 -13 -30 -12 -52 2 -10 6 -12 4
-7 -4z"/>
<path d="M665 2760 c6 -10 4 -12 -8 -7 -15 6 -17 -2 -17 -53 l0 -60 55 0 55 0
0 59 c0 44 -4 60 -16 65 -8 3 -12 2 -9 -3 6 -11 -35 -8 -54 4 -10 6 -12 4 -6
-5z"/>
<path d="M784 2762 c4 -7 1 -12 -8 -12 -11 0 -14 -13 -14 -55 l2 -56 55 3 56
3 2 53 c1 43 -2 54 -19 63 -13 7 -18 7 -14 1 7 -12 -33 -10 -53 3 -10 5 -12 4
-7 -3z"/>
<path d="M925 2760 c5 -9 1 -10 -14 -5 -20 6 -21 3 -21 -54 l0 -61 54 0 c51 0
54 1 57 28 3 15 1 43 -2 62 -4 19 -7 31 -8 26 0 -5 -9 -2 -18 5 -11 10 -14 10
-9 2 9 -16 1 -16 -26 -2 -16 8 -19 8 -13 -1z"/>
<path d="M1040 2763 c0 -7 -6 -12 -12 -10 -9 1 -13 -14 -13 -53 l0 -55 58 -3
58 -3 -3 58 c-2 32 -7 58 -13 58 -5 0 -16 4 -24 9 -10 6 -12 6 -7 -3 10 -15
-25 -11 -36 4 -5 6 -8 5 -8 -2z"/>
<path d="M1278 2757 c-9 -10 -14 -33 -13 -64 l1 -48 57 -3 57 -3 0 56 c0 32
-4 55 -11 55 -5 0 -7 6 -3 13 6 9 5 9 -7 0 -12 -10 -18 -10 -29 0 -10 9 -11 9
-6 0 9 -16 -6 -17 -21 -2 -7 7 -15 6 -25 -4z"/>
<path d="M1404 2761 c4 -6 2 -11 -3 -11 -7 0 -11 -23 -11 -55 l0 -56 57 3 57
3 1 56 c2 51 0 56 -19 54 -12 0 -27 4 -35 9 -11 8 -13 8 -7 -1 9 -16 1 -16
-26 -2 -15 8 -19 8 -14 0z"/>
<path d="M1565 2760 c5 -9 2 -10 -14 -5 -29 9 -38 -21 -32 -102 1 -9 19 -13
56 -13 l55 0 0 55 c0 37 -4 56 -12 57 -7 0 -17 2 -23 2 -5 1 -16 5 -24 10 -10
7 -12 5 -6 -4z"/>
<path d="M1684 2763 c5 -9 0 -12 -16 -10 -22 2 -23 -2 -24 -56 l-1 -58 56 3
56 3 0 48 c1 38 -3 51 -18 59 -10 5 -21 7 -24 4 -4 -3 -13 0 -21 7 -13 9 -14
9 -8 0z"/>
<path d="M1771 2705 l-2 -65 55 0 56 0 0 59 c0 35 -5 63 -12 67 -6 4 -8 3 -4
-4 7 -12 -32 -11 -53 3 -10 5 -12 4 -7 -3 9 -15 -6 -16 -20 -2 -8 8 -11 -9
-13 -55z"/>
<path d="M1924 2761 c6 -8 2 -11 -10 -9 -17 3 -19 -4 -19 -52 l0 -55 56 -3 55
-3 2 55 c0 39 -4 58 -16 68 -10 8 -13 9 -9 1 8 -13 -30 -12 -52 2 -10 6 -12 4
-7 -4z"/>
<path d="M2045 2760 c6 -10 4 -12 -8 -7 -15 6 -17 -2 -17 -53 l0 -60 55 0 55
0 0 59 c0 44 -4 60 -16 65 -8 3 -12 2 -9 -3 6 -11 -35 -8 -54 4 -10 6 -12 4
-6 -5z"/>
<path d="M2184 2761 c5 -7 -1 -10 -15 -8 -22 2 -23 -2 -24 -53 l0 -55 55 0 55
0 3 60 c2 33 0 56 -4 52 -4 -4 -14 -1 -22 6 -13 9 -14 9 -8 0 9 -16 1 -16 -26
-2 -15 8 -19 8 -14 0z"/>
<path d="M2284 2762 c4 -7 2 -12 -3 -12 -7 0 -11 -23 -11 -55 l0 -55 55 0 c59
0 57 -3 57 65 0 52 -1 59 -9 52 -3 -4 -13 -1 -21 6 -11 8 -14 9 -9 0 8 -13
-30 -12 -52 2 -10 5 -12 4 -7 -3z"/>
<path d="M2395 2704 l-1 -64 59 0 58 0 -3 58 c-2 31 -7 57 -13 57 -5 0 -16 4
-24 9 -10 6 -12 6 -7 -3 10 -15 -25 -11 -36 4 -5 6 -8 5 -8 -4 0 -10 -4 -11
-12 -3 -10 8 -13 -4 -13 -54z"/>
<path d="M2521 2705 l-2 -65 55 0 c34 0 57 5 60 13 5 10 7 10 12 0 3 -8 25
-13 55 -13 l50 0 -3 58 c-2 31 -7 57 -13 57 -5 0 -16 4 -24 9 -10 6 -12 5 -7
-2 4 -8 -3 -10 -24 -7 -32 4 -33 1 -32 -57 0 -16 -3 -28 -7 -28 -4 0 -7 19 -7
43 1 31 -3 42 -14 42 -8 0 -21 4 -29 9 -9 6 -12 5 -7 -2 7 -11 -31 -11 -50 1
-7 4 -12 -16 -13 -58z"/>
<path d="M12 2573 l3 -56 48 -2 c51 -3 69 11 60 46 -3 11 -1 19 4 19 5 0 9
-25 9 -55 0 -30 -4 -55 -8 -55 -4 0 -8 7 -8 15 0 14 -9 18 -45 18 -67 0 -65 1
-65 -58 l0 -55 55 0 55 0 0 35 c0 19 4 35 9 35 5 0 7 -16 4 -35 l-5 -35 61 0
61 0 0 55 c0 37 -4 55 -12 56 -7 0 -30 1 -51 1 -20 0 -40 4 -42 8 -3 5 19 7
47 7 l53 -2 3 58 3 57 -60 0 c-54 0 -60 -2 -56 -20 2 -11 0 -20 -6 -20 -5 0
-9 9 -9 20 0 18 -7 20 -55 20 l-56 0 3 -57z"/>
<path d="M260 2572 l0 -58 40 1 c22 1 40 -3 40 -8 0 -4 -8 -7 -17 -6 -59 6
-63 2 -63 -56 l0 -56 57 3 57 3 2 53 c1 38 -3 52 -12 52 -8 0 -14 5 -14 10 0
6 6 10 13 10 8 0 12 18 12 55 l0 55 -57 0 -58 0 0 -58z"/>
<path d="M389 2608 c-1 -13 -2 -34 -3 -48 -1 -14 2 -30 6 -35 5 -8 52 -11 101
-6 4 1 7 26 7 56 l0 55 -55 0 c-50 0 -55 -2 -56 -22z"/>
<path d="M510 2575 c0 -30 3 -55 8 -56 30 -4 102 -3 103 1 1 3 3 29 5 58 l4
52 -60 0 -60 0 0 -55z"/>
<path d="M642 2573 c3 -56 4 -58 31 -57 15 0 27 -4 27 -9 0 -4 -8 -7 -17 -6
-46 4 -48 1 -45 -56 l4 -55 54 0 54 0 0 55 c0 52 -5 61 -32 56 -5 0 -8 4 -8
10 0 6 9 9 20 6 18 -5 20 0 20 54 l0 59 -55 0 -56 0 3 -57z"/>
<path d="M890 2576 c0 -34 5 -55 13 -58 10 -4 81 -3 97 1 3 0 3 26 2 56 l-4
55 -54 0 -54 0 0 -54z"/>
<path d="M1015 2510 l0 -121 55 3 55 3 2 53 c1 35 -2 52 -10 53 -7 0 -29 1
-49 1 -21 0 -38 4 -38 8 0 4 21 7 48 6 l47 -1 0 55 0 55 -55 3 -56 3 1 -121z"/>
<path d="M1140 2572 l0 -58 53 3 c28 2 57 3 62 3 6 0 35 -1 65 -2 l55 -3 3 58
3 58 -58 -3 -57 -3 0 -42 c0 -24 -4 -43 -9 -43 -4 0 -8 10 -7 23 6 65 4 67
-55 67 l-55 0 0 -58z"/>
<path d="M1519 2610 c-1 -11 -2 -37 -2 -57 l-1 -38 49 2 c28 0 53 1 58 2 4 1
7 26 7 56 l0 55 -55 0 c-48 0 -55 -3 -56 -20z"/>
<path d="M1642 2575 c-2 -55 4 -62 41 -56 4 0 7 -4 7 -10 0 -7 -10 -9 -25 -7
-24 5 -25 4 -25 -54 l0 -59 57 3 58 3 1 50 c1 28 -4 53 -10 58 -8 5 -8 9 0 15
6 4 10 30 10 57 l-1 50 -56 3 -55 3 -2 -56z m88 -67 c0 -4 -7 -8 -15 -8 -8 0
-15 4 -15 8 0 5 7 9 15 9 8 0 15 -4 15 -9z"/>
<path d="M1771 2510 l0 -120 55 0 55 0 -3 57 -3 57 -42 -1 c-24 0 -43 3 -43 7
0 4 20 7 45 5 l45 -2 0 59 0 58 -55 0 -54 0 0 -120z"/>
<path d="M1893 2573 l2 -57 52 -1 c29 0 54 4 56 10 2 5 3 30 3 55 l-1 45 -57
3 -57 3 2 -58z"/>
<path d="M2144 2575 c-1 -59 -3 -56 61 -59 48 -3 52 2 54 60 l1 54 -58 0 -57
0 -1 -55z"/>
<path d="M2270 2576 c0 -60 5 -65 64 -61 53 4 54 7 47 108 -1 4 -26 7 -56 7
l-55 0 0 -54z"/>
<path d="M2520 2577 c0 -60 3 -63 63 -62 20 0 37 -3 37 -7 0 -4 -22 -6 -50 -5
l-50 2 0 -57 0 -57 115 0 115 0 0 57 0 58 -45 -1 c-25 -1 -45 2 -45 7 0 4 15
7 33 6 57 -1 57 -1 57 57 l0 55 -50 0 c-50 0 -50 0 -51 -32 -1 -18 -1 -39 0
-45 1 -7 -2 -13 -7 -13 -5 0 -9 19 -8 43 l1 42 -57 3 -58 3 0 -54z m130 -107
c0 -78 -14 -78 -17 0 -1 33 2 60 7 60 6 0 10 -27 10 -60z"/>
<path d="M779 2502 c-12 -2 -16 -16 -17 -58 l-1 -55 57 3 57 3 2 53 c0 33 -3
52 -10 53 -38 4 -74 4 -88 1z"/>
<path d="M1407 2502 c-14 -3 -17 -14 -17 -58 l0 -54 58 0 58 0 -1 50 c-1 27
-4 52 -7 56 -8 7 -65 11 -91 6z"/>
<path d="M2020 2448 l0 -58 55 0 55 0 0 55 c0 45 -3 55 -17 56 -10 1 -35 2
-56 3 l-37 1 0 -57z"/>
<path d="M2150 2500 c-4 -3 -7 -27 -6 -55 l1 -50 57 -3 57 -3 0 56 c-1 34 -5
55 -13 56 -58 3 -89 3 -96 -1z"/>
<path d="M10 2322 l0 -58 55 0 c58 0 61 3 56 59 -1 9 2 17 7 17 6 0 9 -17 7
-38 l-3 -38 56 0 57 1 3 58 3 58 -58 -3 c-40 -2 -57 -7 -55 -15 1 -7 -2 -13
-8 -13 -5 0 -10 7 -10 15 0 12 -13 15 -55 15 l-55 0 0 -58z"/>
<path d="M262 2323 l3 -57 50 -2 c27 -2 52 2 56 7 5 8 5 56 0 102 -1 4 -26 7
-56 7 l-56 0 3 -57z"/>
<path d="M510 2325 c0 -30 3 -56 8 -56 30 -5 102 -5 103 0 1 3 2 30 4 59 l2
52 -58 0 -59 0 0 -55z"/>
<path d="M890 2322 l0 -58 53 0 52 1 3 58 3 57 -56 0 -55 0 0 -58z"/>
<path d="M1140 2322 l0 -58 48 2 c26 1 52 2 57 3 6 1 10 20 9 44 -2 23 -3 48
-3 55 -1 8 -19 12 -56 12 l-55 0 0 -58z"/>
<path d="M1390 2327 c0 -35 5 -56 13 -59 10 -4 80 -3 97 1 3 0 6 25 5 54 l-1
52 -57 3 -57 3 0 -54z"/>
<path d="M1770 2322 l0 -58 53 0 52 1 3 58 3 57 -56 0 -55 0 0 -58z"/>
<path d="M2272 2323 l3 -57 48 -1 c59 -3 66 10 58 105 -1 6 -26 10 -56 10
l-56 0 3 -57z"/>
<path d="M2395 2323 l1 -58 55 0 54 0 3 58 3 57 -58 0 -59 0 1 -57z"/>
<path d="M2522 2323 l3 -57 40 -2 c57 -3 74 4 70 26 -2 11 1 20 6 20 5 0 9 -6
8 -12 -4 -29 3 -34 51 -34 l50 0 0 58 0 58 -50 0 c-38 0 -50 -4 -50 -15 0 -8
-4 -15 -10 -15 -5 0 -9 6 -7 13 1 8 -16 13 -56 15 l-58 3 3 -58z m128 7 c0 -5
-4 -10 -10 -10 -5 0 -10 5 -10 10 0 6 5 10 10 10 6 0 10 -4 10 -10z"/>
<path d="M27 2252 c-14 -3 -17 -14 -17 -58 l0 -54 61 0 c37 0 58 4 54 10 -3 6
-1 10 4 10 6 0 11 -4 11 -10 0 -5 25 -10 55 -10 l55 0 0 54 0 54 -46 4 c-60 4
-73 -4 -70 -47 2 -19 -1 -35 -5 -35 -5 0 -9 18 -9 39 0 38 -1 39 -38 43 -21 1
-45 2 -55 0z"/>
<path d="M271 2252 c-6 -2 -11 -27 -11 -58 l0 -54 55 0 c52 0 61 5 56 33 0 4
4 7 10 7 6 0 9 -9 6 -20 -5 -18 0 -20 54 -20 l59 0 0 54 0 54 -37 3 c-68 7
-81 1 -77 -32 2 -16 0 -29 -5 -29 -4 0 -8 12 -7 28 1 25 -2 27 -45 32 -26 3
-52 4 -58 2z"/>
<path d="M794 2250 c-29 -5 -30 -7 -31 -58 l0 -53 56 3 56 3 1 52 c1 48 0 51
-25 55 -14 2 -40 1 -57 -2z"/>
<path d="M1519 2243 c-1 -17 -1 -80 0 -93 1 -5 26 -10 56 -10 l55 0 0 54 0 54
-55 4 c-39 2 -55 -1 -56 -9z"/>
<path d="M2175 2250 c-29 -5 -30 -7 -31 -57 l-1 -53 58 0 58 0 0 54 c0 51 -2
54 -27 58 -15 2 -40 1 -57 -2z"/>
<path d="M2420 2250 c-23 -5 -25 -10 -25 -55 l1 -50 57 -3 57 -3 0 54 c0 54 0
55 -32 59 -18 2 -44 1 -58 -2z"/>
<path d="M2543 2252 c-21 -3 -23 -9 -23 -58 l0 -54 59 0 c54 0 59 2 54 20 -3
12 0 20 6 20 7 0 11 -8 9 -17 -2 -15 6 -19 50 -21 l52 -3 0 54 c0 54 0 55 -32
58 -62 7 -75 1 -70 -31 2 -17 0 -30 -5 -30 -6 0 -10 12 -9 27 1 24 -3 28 -34
33 -19 3 -45 4 -57 2z"/>
<path d="M10 2071 l0 -57 55 -1 c55 0 58 2 58 42 0 73 1 70 -58 72 l-55 1 0
-57z"/>
<path d="M137 2121 c-2 -3 -3 -28 -2 -56 l1 -50 55 0 54 0 0 55 0 55 -53 1
c-29 1 -54 -1 -55 -5z"/>
<path d="M389 2105 c-1 -14 -1 -34 -1 -45 0 -46 1 -47 57 -46 l56 1 -3 55 -3
55 -52 2 c-50 2 -53 1 -54 -22z"/>
<path d="M2399 2121 c0 -3 -2 -27 -3 -53 -2 -54 2 -57 72 -56 l42 1 0 56 0 57
-55 1 c-30 0 -55 -2 -56 -6z"/>
<path d="M2524 2115 c-3 -7 -4 -32 -2 -56 l3 -44 52 -1 c30 -1 53 3 56 10 3 9
2 79 -2 96 -2 12 -103 7 -107 -5z"/>
<path d="M2649 2097 c-2 -17 -3 -44 -1 -59 3 -25 6 -26 53 -25 l49 1 0 55 0
56 -49 3 c-48 2 -49 1 -52 -31z"/>
<path d="M10 1945 l0 -55 58 0 57 0 -2 32 c-1 18 -2 43 -2 56 -1 20 -6 22 -56
22 l-55 0 0 -55z"/>
<path d="M135 1953 c1 -27 3 -51 4 -55 0 -5 26 -8 56 -8 l55 0 0 55 0 55 -58
0 -58 0 1 -47z"/>
<path d="M260 1945 l0 -55 58 0 57 0 -1 48 c-1 26 -2 50 -3 55 0 4 -26 7 -56
7 l-55 0 0 -55z"/>
<path d="M510 1945 l0 -56 57 3 57 3 2 53 1 52 -59 0 -58 0 0 -55z"/>
<path d="M2020 1945 l0 -55 55 0 55 0 0 55 0 55 -55 0 -55 0 0 -55z"/>
<path d="M2270 1945 l0 -55 120 0 120 0 0 55 0 55 -58 0 -59 0 3 -50 c1 -27
-1 -50 -6 -50 -4 0 -8 17 -8 38 0 20 -1 43 -1 50 -1 8 -19 12 -56 12 l-55 0 0
-55z"/>
<path d="M2520 1945 l0 -55 115 0 115 0 0 55 0 55 -50 0 -50 0 -1 -37 c-1 -21
-1 -44 0 -50 1 -7 -2 -13 -7 -13 -5 0 -8 23 -7 50 l2 50 -58 0 -59 0 0 -55z"/>
<path d="M10 1820 l0 -57 55 -2 55 -1 1 33 c1 17 1 40 0 50 -1 9 2 17 7 17 5
0 8 -22 7 -50 l-2 -49 56 2 56 2 0 55 0 55 -117 1 -118 1 0 -57z"/>
<path d="M265 1872 c-3 -3 -5 -29 -5 -57 l0 -52 50 -2 c57 -2 66 9 65 74 l0
40 -52 1 c-29 1 -54 -1 -58 -4z"/>
<path d="M2147 1871 c-2 -3 -3 -28 -2 -56 l0 -50 57 0 57 -1 -2 56 -2 55 -53
1 c-29 0 -54 -2 -55 -5z"/>
<path d="M2270 1819 l0 -58 57 2 56 2 -1 43 c0 23 -1 49 -1 57 -1 11 -14 14
-56 13 l-55 -2 0 -57z"/>
<path d="M2520 1819 l0 -56 53 0 c28 0 55 4 58 10 4 5 5 30 3 55 -3 33 -1 43
7 35 6 -6 10 -31 8 -56 l-4 -45 53 -1 52 0 0 58 0 59 -115 -1 -115 -1 0 -57z"/>
<path d="M10 1695 l0 -55 55 0 c48 0 55 2 55 20 0 11 4 20 8 20 4 0 8 -38 7
-85 l-1 -85 59 0 58 0 -3 58 c-3 55 -4 57 -30 56 -16 -1 -28 3 -28 7 0 5 14 9
30 9 30 0 30 1 30 55 l0 55 -58 0 -59 0 2 -30 c1 -16 -2 -30 -7 -30 -4 0 -8
14 -8 30 0 30 -1 30 -55 30 l-55 0 0 -55z m170 -63 c0 -5 -7 -9 -15 -9 -8 0
-15 4 -15 9 0 4 7 8 15 8 8 0 15 -4 15 -8z"/>
<path d="M389 1743 c-1 -5 -1 -28 -2 -53 l0 -45 56 -3 57 -3 0 56 0 55 -55 0
c-30 0 -55 -3 -56 -7z"/>
<path d="M511 1695 l0 -55 57 0 58 0 -1 55 0 55 -56 0 -57 0 -1 -55z"/>
<path d="M2270 1695 l0 -56 57 3 56 3 0 38 c-1 20 -2 44 -2 52 -1 11 -14 15
-56 15 l-55 0 0 -55z"/>
<path d="M2394 1695 l1 -55 58 0 57 0 0 55 0 55 -58 0 -58 0 0 -55z"/>
<path d="M2649 1733 c0 -10 -2 -35 -3 -55 l-2 -38 53 0 53 0 0 55 0 55 -50 0
c-41 0 -50 -3 -51 -17z"/>
<path d="M10 1568 l0 -58 55 0 c58 0 57 -1 57 55 0 62 2 61 -57 61 l-55 1 0
-59z"/>
<path d="M260 1569 l0 -56 55 -2 c57 -2 63 4 56 57 -1 6 2 12 7 12 5 0 9 -10
9 -22 1 -47 2 -48 58 -48 l56 0 -3 58 -3 57 -52 1 c-45 1 -53 -2 -53 -18 0
-10 -4 -18 -10 -18 -5 0 -7 7 -4 15 7 17 8 17 -63 19 l-53 1 0 -56z"/>
<path d="M642 1611 c-5 -12 -6 -54 -3 -91 1 -5 26 -10 56 -10 l55 0 0 58 0 58
-51 0 c-35 0 -53 -5 -57 -15z"/>
<path d="M2399 1621 c-1 -3 -2 -28 -2 -56 l-2 -50 58 -3 58 -3 -3 58 -3 58
-52 1 c-29 0 -53 -2 -54 -5z"/>
<path d="M2520 1569 l0 -57 58 2 c40 1 56 5 55 14 -2 6 2 12 8 12 6 0 9 -7 5
-15 -4 -12 5 -15 49 -15 l55 0 0 55 c0 30 -3 55 -7 56 -43 6 -80 5 -89 -2 -6
-5 -10 -23 -8 -39 2 -17 0 -30 -5 -30 -5 0 -8 11 -7 24 5 40 -9 50 -63 51
l-51 1 0 -57z"/>
<path d="M10 1443 l0 -58 40 1 c22 1 40 -3 40 -8 0 -6 -11 -8 -24 -4 -45 11
-56 -1 -56 -60 l0 -54 54 0 c34 0 57 5 60 13 5 10 7 10 12 0 3 -8 26 -13 60
-13 l54 0 0 55 c0 59 4 56 -67 59 -17 0 -34 4 -38 8 -4 4 17 6 46 5 l54 -2 3
58 3 57 -59 0 -58 0 1 -105 c0 -58 -3 -105 -7 -105 -5 0 -8 17 -6 37 1 22 -3
38 -10 41 -7 2 -12 8 -12 13 0 6 5 7 10 4 10 -6 12 1 12 55 0 62 1 60 -57 60
l-55 0 0 -57z"/>
<path d="M260 1443 l0 -58 55 -1 c30 -1 55 1 56 5 4 22 4 88 1 99 -3 7 -24 12
-58 12 l-54 0 0 -57z"/>
<path d="M386 1453 c3 -73 3 -75 14 -68 15 9 12 -4 -4 -21 -17 -16 -30 -19
-21 -4 6 9 -9 12 -70 12 -14 0 -29 0 -35 -1 -5 -1 -10 -26 -10 -56 l0 -56 58
3 c52 3 57 5 56 26 -1 12 3 22 8 22 5 0 8 -6 7 -12 -4 -34 2 -38 56 -38 l55 0
0 58 0 58 -40 -3 c-22 -1 -40 2 -40 7 0 4 12 7 27 5 46 -5 53 3 53 61 l0 54
-58 0 -58 0 2 -47z m4 -123 c0 -5 -4 -10 -10 -10 -5 0 -10 5 -10 10 0 6 5 10
10 10 6 0 10 -4 10 -10z"/>
<path d="M512 1444 l3 -58 52 0 c29 -1 54 3 56 9 2 5 3 30 3 55 l-1 45 -58 3
-58 3 3 -57z"/>
<path d="M2149 1493 c-1 -5 -2 -29 -3 -55 -2 -47 4 -54 37 -49 4 0 7 -4 7 -10
0 -5 -10 -9 -22 -7 -20 3 -22 -1 -23 -52 l0 -55 56 -3 56 -3 2 56 c2 57 -2 62
-46 56 -7 -1 -13 2 -13 8 0 5 13 8 29 7 28 -2 28 -1 30 56 l1 58 -55 0 c-30 0
-56 -3 -56 -7z"/>
<path d="M2399 1488 c0 -7 -2 -30 -3 -51 -3 -46 6 -53 64 -53 l45 1 3 58 3 57
-56 0 c-37 0 -55 -4 -56 -12z"/>
<path d="M2520 1445 c0 -52 1 -55 25 -55 14 0 25 -4 25 -9 0 -4 -10 -8 -22 -7
-21 1 -23 -4 -26 -57 l-3 -58 57 3 58 3 1 48 c2 49 -13 70 -42 60 -7 -3 -13 0
-13 5 0 5 12 9 28 8 16 0 26 4 25 12 -2 7 1 12 7 12 6 0 10 -7 10 -16 0 -8 5
-12 10 -9 6 3 10 1 10 -4 0 -6 -6 -11 -12 -11 -11 0 -14 -37 -9 -102 1 -5 24
-8 51 -8 l50 0 0 58 0 58 -35 -2 c-19 -2 -35 1 -35 5 0 5 10 8 23 8 46 1 47 2
47 58 l0 55 -50 0 c-48 0 -50 -1 -51 -27 -1 -16 -1 -34 0 -40 1 -7 -2 -13 -7
-13 -5 0 -9 17 -8 38 l1 37 -57 3 -58 3 0 -56z"/>
<path d="M2287 1372 c-14 -3 -17 -15 -17 -58 l0 -55 57 3 56 3 0 35 c-1 76 0
75 -41 75 -21 0 -46 -1 -55 -3z"/>
<path d="M12 1193 c3 -56 4 -58 31 -56 15 1 27 -2 27 -7 0 -6 -13 -10 -30 -10
-30 0 -30 -1 -30 -54 l0 -55 120 0 120 0 0 54 c0 60 -6 64 -82 57 l-36 -4 3
-44 c1 -24 -1 -44 -5 -44 -3 0 -7 18 -8 41 -2 49 -8 60 -27 52 -8 -3 -15 -1
-15 5 0 5 10 9 23 8 19 -1 22 3 19 32 -2 17 1 32 6 32 5 0 9 -8 9 -17 0 -47 2
-48 56 -48 l52 0 3 58 3 58 -58 -3 c-48 -2 -58 -6 -57 -20 1 -10 -2 -18 -7
-18 -5 0 -9 9 -9 20 0 18 -7 20 -55 20 l-56 0 3 -57z"/>
<path d="M264 1236 c-3 -7 -4 -33 -2 -57 3 -39 6 -44 26 -42 12 2 22 -2 22 -7
0 -6 -11 -10 -25 -10 -24 0 -25 -3 -25 -55 l0 -55 58 0 58 0 -1 51 c-1 51 -15
72 -42 62 -7 -3 -13 0 -13 5 0 6 8 9 18 7 30 -5 37 7 37 62 l0 53 -53 0 c-36
0 -54 -4 -58 -14z"/>
<path d="M514 1192 l1 -57 45 0 c25 -1 50 0 55 2 6 2 11 27 10 56 l0 52 -56 1
-57 2 2 -56z"/>
<path d="M2272 1193 l3 -58 45 -1 c52 -1 70 9 65 37 -2 10 1 19 6 19 6 0 9
-12 7 -27 -3 -25 0 -27 37 -29 70 -3 75 1 75 62 l0 54 -55 0 c-54 0 -60 -4
-56 -37 1 -7 -3 -13 -10 -13 -7 0 -9 10 -7 25 5 24 4 25 -54 25 l-59 0 3 -57z"/>
<path d="M2520 1194 c0 -36 4 -54 13 -55 53 -6 93 -4 98 4 4 5 13 6 20 1 7 -4
32 -9 56 -9 l43 -2 0 58 0 59 -50 0 c-53 0 -56 -3 -50 -67 1 -13 -3 -23 -7
-23 -5 0 -9 19 -9 43 l0 42 -57 1 -57 2 0 -54z"/>
<path d="M415 1122 c-29 -3 -30 -4 -29 -55 l1 -52 57 -3 56 -3 0 54 c0 52 -1
55 -27 58 -16 2 -41 3 -58 1z"/>
<path d="M2170 1122 c-24 -3 -26 -6 -26 -57 l1 -55 56 0 56 0 2 55 c1 38 -2
55 -11 56 -7 0 -22 1 -33 2 -11 1 -31 1 -45 -1z"/>
<path d="M2420 1120 c-23 -5 -25 -10 -25 -55 l1 -50 57 -3 57 -3 0 54 c0 54 0
55 -32 59 -18 2 -44 1 -58 -2z"/>
<path d="M2520 1068 l0 -58 61 0 c37 0 58 4 54 10 -3 6 -1 10 4 10 6 0 11 -4
11 -10 0 -5 23 -10 50 -10 l50 0 0 55 c0 53 -1 55 -27 56 -16 0 -38 2 -50 3
-22 3 -28 -8 -24 -41 1 -7 -2 -13 -8 -13 -5 0 -8 11 -6 25 2 19 -2 25 -19 26
-11 0 -38 1 -59 2 l-37 2 0 -57z m130 -18 c0 -5 -4 -10 -10 -10 -5 0 -10 5
-10 10 0 6 5 10 10 10 6 0 10 -4 10 -10z"/>
<path d="M10 942 l0 -59 55 0 c30 0 55 4 56 9 0 4 1 22 1 38 0 73 3 70 -57 70
l-55 0 0 -58z"/>
<path d="M264 987 c-3 -8 -4 -34 -2 -58 l3 -44 52 -1 c58 -2 60 1 58 66 l-1
45 -52 3 c-38 2 -54 -1 -58 -11z"/>
<path d="M638 967 c-2 -18 -1 -44 2 -58 5 -21 11 -24 58 -25 l52 -1 0 59 0 58
-54 0 c-54 0 -54 0 -58 -33z"/>
<path d="M2022 943 l3 -58 53 -2 52 -1 0 59 0 59 -55 0 -56 0 3 -57z"/>
<path d="M2270 941 l0 -60 57 2 56 3 0 37 c-2 83 2 77 -58 77 l-55 0 0 -59z"/>
<path d="M2399 998 c-1 -2 -2 -28 -3 -60 l-1 -56 55 1 55 2 3 58 3 57 -56 0
c-30 0 -56 -1 -56 -2z"/>
<path d="M2522 941 l3 -56 45 -2 c25 0 51 4 58 10 9 7 16 7 20 1 4 -6 28 -10
55 -10 l47 -1 0 59 0 58 -50 0 c-48 0 -50 -1 -51 -27 -1 -16 -1 -36 0 -45 1
-10 -2 -18 -7 -18 -5 0 -9 20 -8 45 l1 46 -58 -2 -58 -2 3 -56z"/>
<path d="M10 815 l0 -55 55 0 c48 0 55 2 55 20 0 11 4 20 9 20 6 0 8 -9 6 -20
-4 -18 2 -20 56 -20 l59 0 0 55 0 56 -57 -3 c-56 -3 -58 -4 -57 -30 0 -16 -4
-28 -9 -28 -5 0 -7 14 -5 30 l5 30 -59 0 -58 0 0 -55z"/>
<path d="M260 815 l0 -55 55 0 c30 0 55 5 55 10 0 6 5 10 11 10 5 0 7 -4 4
-10 -4 -6 17 -10 54 -10 l61 0 0 55 0 55 -59 0 c-54 0 -59 -2 -54 -20 3 -11 1
-20 -5 -20 -5 0 -9 8 -8 18 1 14 -9 18 -56 20 l-58 3 0 -56z m130 -10 c0 -8
-4 -15 -8 -15 -5 0 -9 7 -9 15 0 8 4 15 9 15 4 0 8 -7 8 -15z"/>
<path d="M510 815 l0 -55 58 0 58 0 -1 53 0 52 -57 3 -58 3 0 -56z"/>
<path d="M2270 815 l0 -55 51 0 c37 0 56 5 66 18 14 16 14 16 9 0 -5 -16 2
-18 54 -18 l60 0 0 55 0 55 -54 0 c-57 0 -69 -10 -59 -49 3 -12 1 -21 -4 -21
-6 0 -10 15 -9 33 l1 32 -58 3 -57 3 0 -56z"/>
<path d="M2520 816 l0 -55 115 0 115 0 0 55 0 54 -50 0 c-50 0 -50 0 -51 -32
-1 -18 -1 -39 0 -45 1 -7 -2 -13 -7 -13 -5 0 -9 19 -8 43 l1 42 -57 3 -58 3 0
-55z"/>
<path d="M12 691 l3 -56 57 -1 c43 0 55 3 51 13 -3 7 0 13 6 13 6 0 11 -6 11
-14 0 -11 14 -14 55 -14 l56 1 -3 56 -3 56 -55 0 -55 0 1 -38 c0 -20 -3 -37
-8 -37 -5 0 -9 10 -8 23 5 52 3 53 -55 54 l-56 0 3 -56z"/>
<path d="M264 735 c-3 -7 -4 -32 -2 -56 l3 -44 53 -1 c28 -1 52 1 53 5 4 30 5
79 2 92 -6 20 -102 24 -109 4z"/>
<path d="M514 735 c-3 -7 -4 -32 -2 -56 l3 -44 53 -2 c35 -1 52 2 53 10 6 70
6 97 0 98 -44 9 -103 6 -107 -6z"/>
<path d="M2397 742 c-1 -4 -2 -29 -2 -57 l1 -50 57 -1 58 -1 -3 56 -3 56 -53
2 c-28 0 -53 -2 -55 -5z"/>
<path d="M2522 691 l3 -56 113 -1 112 -2 0 57 0 58 -50 0 c-29 0 -50 -5 -51
-11 -1 -6 0 -28 1 -48 1 -21 -2 -38 -7 -38 -5 0 -9 20 -8 45 1 25 -1 46 -4 46
-3 1 -30 3 -59 4 l-53 2 3 -56z"/>
<path d="M10 565 l0 -55 55 0 c42 0 55 3 55 15 0 8 5 15 10 15 6 0 9 -6 8 -12
-2 -9 15 -14 55 -16 l57 -3 0 56 0 56 -57 -3 -58 -3 1 -32 c1 -18 -3 -33 -8
-33 -5 0 -8 6 -7 13 6 51 1 57 -56 57 l-55 0 0 -55z"/>
<path d="M1013 568 c2 -50 3 -53 32 -58 17 -3 42 -4 56 -2 24 4 26 8 28 58 l2
54 -60 0 -60 0 2 -52z"/>
<path d="M1770 566 c0 -61 5 -65 68 -58 l42 4 0 54 0 54 -55 0 -55 0 0 -54z"/>
<path d="M2270 565 l0 -55 58 0 57 0 0 55 0 55 -57 0 -58 0 0 -55z"/>
<path d="M2520 565 l0 -55 59 0 c54 0 60 2 56 20 -2 11 1 20 6 20 5 0 9 -8 7
-17 -2 -15 6 -19 50 -21 l52 -3 0 55 0 56 -50 0 c-38 0 -50 -4 -50 -15 0 -8
-4 -15 -10 -15 -5 0 -9 6 -7 13 1 8 -16 13 -55 15 l-58 3 0 -56z m130 5 c0 -5
-4 -10 -10 -10 -5 0 -10 5 -10 10 0 6 5 10 10 10 6 0 10 -4 10 -10z"/>
<path d="M10 438 l0 -58 55 0 c52 0 61 5 56 33 0 4 4 7 10 7 6 0 9 -9 6 -20
-5 -18 0 -20 54 -20 l60 0 -3 58 -3 57 -57 1 -58 2 4 -34 c3 -19 0 -34 -6 -34
-5 0 -8 6 -5 13 2 6 1 22 -4 34 -7 19 -15 21 -58 20 l-51 -1 0 -58z"/>
<path d="M260 437 l0 -58 58 3 c52 3 57 5 56 26 -1 12 3 22 8 22 5 0 8 -6 7
-12 -4 -34 2 -38 56 -38 l55 0 0 58 0 59 -52 -2 c-29 -1 -54 -7 -56 -13 -5
-16 -23 -15 -19 0 1 9 -16 12 -55 13 l-58 0 0 -58z m130 13 c0 -5 -4 -10 -10
-10 -5 0 -10 5 -10 10 0 6 5 10 10 10 6 0 10 -4 10 -10z"/>
<path d="M522 492 c-7 -2 -12 -26 -12 -58 l0 -54 58 0 58 0 -1 57 0 57 -46 1
c-25 1 -51 -1 -57 -3z"/>
<path d="M766 490 c-2 -3 -3 -27 -2 -55 l1 -50 55 0 55 0 0 55 0 55 -53 0
c-29 1 -55 -1 -56 -5z"/>
<path d="M1140 438 l0 -58 55 0 c60 0 57 -3 57 70 0 17 -1 34 -1 38 -1 4 -26
8 -56 7 l-55 0 0 -57z"/>
<path d="M1522 486 c-7 -10 -7 -25 -3 -88 1 -15 11 -18 56 -18 l56 0 -3 57 -3
57 -48 1 c-26 1 -51 -3 -55 -9z"/>
<path d="M1898 496 c0 -1 -2 -27 -3 -59 l-2 -58 56 3 56 3 0 54 0 55 -52 1
c-29 1 -54 1 -55 1z"/>
<path d="M2275 492 c-3 -3 -5 -29 -5 -59 l0 -53 55 0 c50 0 55 2 56 23 4 68 4
87 -1 89 -14 4 -101 4 -105 0z"/>
<path d="M2520 439 l0 -59 55 0 c52 0 61 5 56 33 0 4 4 7 9 7 6 0 10 -8 8 -17
-2 -15 6 -19 50 -21 l52 -3 0 59 0 59 -47 -2 c-63 -2 -60 -1 -55 -35 2 -16 0
-30 -5 -30 -6 0 -10 10 -10 23 -1 12 -1 27 -2 33 0 6 -25 10 -56 11 l-55 0 0
-58z"/>
<path d="M10 315 c0 -37 4 -55 13 -56 17 -2 70 -2 85 0 6 0 12 14 12 31 0 17
4 30 8 30 5 0 8 -29 8 -65 0 -36 -4 -65 -9 -65 -5 0 -7 11 -5 24 6 29 -1 32
-62 31 l-45 -1 -3 -57 -3 -57 56 0 c52 0 55 1 55 25 0 14 4 25 9 25 4 0 8 -10
7 -23 -1 -20 4 -22 57 -25 l57 -3 0 56 c0 37 -4 55 -12 56 -7 1 -30 1 -50 1
-21 0 -38 3 -38 7 0 5 15 8 33 8 69 1 67 -1 67 58 l0 56 -57 -3 c-48 -2 -58
-6 -57 -20 1 -10 -2 -18 -7 -18 -5 0 -9 9 -9 20 0 18 -7 20 -55 20 l-55 0 0
-55z"/>
<path d="M260 315 c0 -37 4 -55 13 -56 34 -3 89 0 94 5 3 3 7 28 7 56 l2 50
-58 0 -58 0 0 -55z"/>
<path d="M512 313 l3 -56 53 -1 c28 -1 53 1 54 4 0 3 2 29 3 58 l3 52 -60 0
-59 0 3 -57z"/>
<path d="M640 312 l0 -58 48 2 c26 1 50 2 55 3 4 1 7 26 7 56 l0 55 -55 0 -55
0 0 -58z"/>
<path d="M1019 368 c-7 -14 -3 -104 4 -109 5 -4 24 -4 43 -2 19 3 34 0 34 -5
0 -5 -18 -8 -40 -7 -45 2 -52 -9 -47 -75 l2 -35 55 0 55 0 3 49 c2 32 -1 52
-10 58 -10 8 -10 11 0 15 7 3 12 25 12 59 l0 54 -55 0 c-30 0 -56 -1 -56 -2z"/>
<path d="M1269 368 c-1 -2 -2 -27 -3 -55 -3 -56 -1 -58 52 -53 12 1 22 -3 22
-7 0 -5 -39 -10 -87 -10 -49 -1 -94 -1 -100 -2 -9 -1 -13 -19 -13 -55 l0 -55
120 0 120 0 0 55 c0 41 -4 54 -15 54 -8 0 -15 5 -15 10 0 6 7 10 15 10 12 0
15 13 15 55 l0 55 -55 0 c-30 0 -55 -1 -56 -2z m-4 -178 c1 -52 -11 -52 -13 0
-1 22 1 40 6 40 4 0 7 -18 7 -40z"/>
<path d="M1390 313 l0 -58 51 1 c58 0 66 9 65 69 l-1 40 -58 3 -57 3 0 -58z"/>
<path d="M1641 315 c-1 -59 -2 -58 64 -57 17 0 35 1 41 1 6 1 10 22 10 54 l-2
52 -55 3 -56 3 -2 -56z"/>
<path d="M1770 313 l0 -58 47 2 c27 0 51 2 56 2 4 1 7 26 7 56 l0 55 -55 0
-55 0 0 -57z"/>
<path d="M2147 363 c-3 -7 -2 -86 2 -104 1 -4 69 -4 102 0 3 1 6 26 7 56 l0
55 -53 0 c-30 0 -56 -3 -58 -7z"/>
<path d="M2398 363 c-3 -7 -3 -71 1 -98 0 -5 25 -10 54 -10 l52 0 3 58 3 57
-55 0 c-30 0 -56 -3 -58 -7z"/>
<path d="M2522 313 l3 -57 110 0 110 0 3 57 3 57 -54 0 -53 0 2 -35 c2 -19 -1
-35 -5 -35 -5 0 -8 10 -8 23 -1 46 -2 47 -58 47 l-56 0 3 -57z m128 -33 c0 -5
-4 -10 -10 -10 -5 0 -10 5 -10 10 0 6 5 10 10 10 6 0 10 -4 10 -10z"/>
<path d="M389 228 c0 -10 -1 -35 -2 -55 l0 -38 56 -3 57 -3 0 56 c0 37 -4 55
-12 56 -80 7 -98 4 -99 -13z"/>
<path d="M645 240 c-3 -5 -8 -76 -6 -97 1 -9 19 -13 56 -13 l55 0 0 58 0 57
-51 0 c-28 0 -52 -2 -54 -5z"/>
<path d="M895 241 c-3 -2 -5 -28 -5 -58 l0 -53 55 0 56 0 -3 57 -3 56 -48 2
c-26 1 -50 -1 -52 -4z"/>
<path d="M1394 241 c-2 -2 -4 -28 -4 -58 l0 -53 59 0 58 0 -3 53 c-1 28 -3 54
-3 57 -1 6 -101 7 -107 1z"/>
<path d="M1516 240 c-1 -4 -1 -29 3 -92 1 -15 11 -18 56 -18 l56 0 -3 57 -3
57 -53 0 c-30 1 -55 -1 -56 -4z"/>
<path d="M1648 239 c-5 -3 -8 -28 -6 -55 l3 -49 55 0 54 0 2 53 c0 28 -2 52
-5 53 -26 4 -95 3 -103 -2z"/>
<path d="M1899 245 c-1 0 -3 -26 -4 -57 l-2 -58 57 0 57 0 1 55 c0 35 -4 55
-11 56 -9 1 -90 4 -98 4z"/>
<path d="M2020 188 l0 -58 55 0 55 0 0 58 0 57 -55 0 -55 0 0 -57z"/>
<path d="M2164 240 c-16 -4 -20 -14 -19 -55 l0 -50 56 -3 57 -3 -2 57 -1 58
-36 1 c-20 0 -44 -2 -55 -5z"/>
<path d="M2287 242 c-13 -3 -17 -15 -17 -58 l0 -54 55 0 c54 0 55 0 56 30 4
84 3 85 -39 85 -21 0 -46 -1 -55 -3z"/>
<path d="M2408 240 c-8 -3 -13 -25 -14 -57 l-1 -53 58 0 59 0 0 55 c0 30 -3
55 -7 56 -34 4 -84 4 -95 -1z"/>
<path d="M2530 242 c-6 -2 -10 -28 -10 -58 l0 -54 58 0 59 0 -2 50 c-1 28 2
50 6 50 4 0 7 -15 7 -32 -1 -70 -2 -68 52 -68 l50 0 0 55 c0 30 -3 55 -7 56
-24 3 -205 3 -213 1z"/>
<path d="M12 63 l3 -57 53 -1 c52 -1 56 2 53 38 -1 9 2 17 7 17 5 0 9 -12 8
-27 -1 -27 1 -27 54 -28 l55 0 3 58 3 57 -59 0 c-57 0 -59 -1 -57 -25 2 -14
-1 -25 -6 -25 -6 0 -9 6 -8 13 4 33 -2 37 -56 37 l-56 0 3 -57z"/>
<path d="M260 63 l0 -59 48 1 c26 0 52 4 58 8 7 4 11 28 9 54 l-2 48 -56 3
-57 3 0 -58z"/>
<path d="M389 95 c-5 -91 -5 -90 56 -90 l55 0 0 57 0 58 -55 0 c-52 0 -55 -2
-56 -25z"/>
<path d="M510 65 c0 -30 3 -55 8 -56 28 -4 89 -5 98 -2 7 2 11 26 10 56 l-1
52 -57 3 -58 3 0 -56z"/>
<path d="M640 63 l0 -58 55 -1 55 0 0 58 0 58 -55 0 -55 0 0 -57z"/>
<path d="M764 63 l1 -56 48 -2 c26 0 51 1 55 4 5 3 9 30 9 59 l0 52 -58 0 -57
0 2 -57z"/>
<path d="M890 63 l0 -58 53 0 c47 0 52 2 57 25 3 14 4 40 2 58 -4 32 -5 32
-58 32 l-54 0 0 -57z"/>
<path d="M1017 113 c-2 -5 -4 -30 -3 -58 l1 -49 55 -1 55 0 2 58 2 57 -54 0
c-30 0 -56 -3 -58 -7z"/>
<path d="M1269 115 c0 -3 -1 -25 -1 -50 0 -25 1 -48 1 -53 1 -6 47 -8 99 -3 8
1 12 19 12 56 l0 55 -55 0 c-30 0 -55 -2 -56 -5z"/>
<path d="M1390 63 l0 -59 58 1 c38 1 56 5 55 13 -4 16 14 15 19 0 3 -8 24 -13
56 -13 l52 0 0 57 0 58 -55 0 c-58 0 -62 -4 -56 -63 1 -9 -2 -17 -7 -17 -5 0
-9 17 -8 38 l1 37 -57 3 -58 3 0 -58z"/>
<path d="M1641 67 c-2 -61 0 -63 69 -62 l45 0 0 55 0 55 -56 3 -56 3 -2 -54z"/>
<path d="M1772 63 l3 -57 50 -1 50 0 3 58 3 57 -56 0 -56 0 3 -57z"/>
<path d="M1897 113 c-9 -15 -3 -102 7 -106 6 -2 31 -3 56 -2 l45 0 0 55 0 55
-52 3 c-28 2 -53 -1 -56 -5z"/>
<path d="M2020 63 l0 -58 53 0 52 0 3 58 3 57 -56 0 -55 0 0 -57z"/>
<path d="M2148 108 c-4 -11 -3 -75 1 -99 1 -5 61 -5 104 0 4 1 7 25 5 54 l-3
52 -51 3 c-35 2 -53 -1 -56 -10z"/>
<path d="M2270 62 l0 -58 55 0 c53 1 61 6 56 39 0 4 4 7 10 7 6 0 9 -6 6 -14
-9 -22 13 -33 63 -31 l45 1 3 57 3 58 -58 -3 c-57 -3 -58 -4 -55 -30 1 -16 -2
-28 -8 -28 -5 0 -9 3 -9 8 7 45 0 52 -56 52 l-55 0 0 -58z"/>
<path d="M2522 63 l3 -58 45 -1 c63 0 67 2 65 41 -2 19 1 35 5 35 5 0 8 -12 8
-27 -1 -48 1 -50 50 -48 l47 1 3 57 3 57 -51 0 c-38 0 -50 -4 -50 -15 0 -8 -4
-15 -10 -15 -5 0 -10 7 -10 15 0 12 -13 15 -55 15 l-56 0 3 -57z"/>
</g>
</svg>
